<?xml version="1.0" encoding="utf-8"?>
<!-- Generator: Adobe Illustrator 27.9.0, SVG Export Plug-In . SVG Version: 6.00 Build 0)  -->
<svg version="1.1" id="Layer_1" xmlns="http://www.w3.org/2000/svg" xmlns:xlink="http://www.w3.org/1999/xlink" x="0px" y="0px"
	 viewBox="0 0 42 42" style="enable-background:new 0 0 42 42;" xml:space="preserve">
<style type="text/css">
	.st0{fill:#DD0000;}
	.st1{fill:#FFCE00;}
	.st2{display:none;fill:none;stroke:#000000;stroke-width:0.25;stroke-miterlimit:10;}
</style>
<path d="M41.4,21c0,2.5-0.4,4.8-1.2,7C37.3,35.8,29.8,41.4,21,41.4S4.7,35.8,1.8,28c-0.8-2.2-1.2-4.5-1.2-7c0-2.5,0.4-4.8,1.2-7
	C4.7,6.2,12.2,0.6,21,0.6S37.3,6.2,40.2,14C41,16.2,41.4,18.5,41.4,21z"/>
<path class="st0" d="M41.4,21c0,2.5-0.4,4.8-1.2,7C37.3,35.8,29.8,41.4,21,41.4S4.7,35.8,1.8,28c-0.8-2.2-1.2-4.5-1.2-7
	c0-2.5,0.4-4.8,1.2-7h38.4C41,16.2,41.4,18.5,41.4,21z"/>
<path class="st1" d="M40.2,28C37.3,35.8,29.8,41.4,21,41.4S4.7,35.8,1.8,28H40.2z"/>
<path class="st2" d="M41.4,21c0,2.5-0.4,4.8-1.2,7C37.3,35.8,29.8,41.4,21,41.4S4.7,35.8,1.8,28c-0.8-2.2-1.2-4.5-1.2-7
	c0-2.5,0.4-4.8,1.2-7C4.7,6.2,12.2,0.6,21,0.6S37.3,6.2,40.2,14C41,16.2,41.4,18.5,41.4,21z"/>
</svg>
