<?xml version="1.0" encoding="utf-8"?>
<!-- Generator: Adobe Illustrator 26.5.0, SVG Export Plug-In . SVG Version: 6.00 Build 0)  -->
<svg version="1.1" id="Layer_1" xmlns="http://www.w3.org/2000/svg" xmlns:xlink="http://www.w3.org/1999/xlink" x="0px" y="0px"
	 viewBox="0 0 42 42" style="enable-background:new 0 0 42 42;" xml:space="preserve">
<style type="text/css">
	.st0{fill:#012169;}
	.st1{fill:#FFFFFF;}
	.st2{fill:#C8102E;}
</style>
<g id="layer1">
	<path class="st0" d="M41.74,21c0,2.05-0.3,4.03-0.87,5.9c-0.09,0.34-0.2,0.68-0.32,1.01c-0.05,0.15-0.11,0.31-0.17,0.46
		c-0.19,0.51-0.4,1-0.63,1.49c-0.41,0.86-0.87,1.69-1.4,2.48c-0.82,1.27-1.78,2.44-2.86,3.48c-1.79,1.76-3.89,3.19-6.22,4.2
		c-0.95,0.41-1.94,0.76-2.96,1.03c-1.48,0.39-3.02,0.62-4.6,0.67c-0.24,0.02-0.47,0.02-0.71,0.02s-0.47,0-0.71-0.02
		c-0.98-0.03-1.94-0.13-2.88-0.3c-1.02-0.17-2.01-0.43-2.97-0.75c-2.72-0.9-5.18-2.35-7.26-4.22c-0.39-0.34-0.76-0.7-1.11-1.07
		c-0.7-0.72-1.35-1.49-1.93-2.31c-0.72-1.01-1.36-2.08-1.89-3.21c-0.1-0.22-0.2-0.44-0.29-0.66c-0.19-0.42-0.36-0.85-0.51-1.29
		c-0.12-0.33-0.23-0.67-0.32-1.01c-0.57-1.87-0.87-3.85-0.87-5.9c0-1.02,0.07-2.02,0.22-3c0.14-0.97,0.35-1.91,0.62-2.82
		c0.01-0.05,0.03-0.1,0.05-0.15c0.09-0.32,0.19-0.63,0.3-0.94c0.04-0.12,0.08-0.23,0.13-0.35c0.35-0.94,0.76-1.85,1.24-2.72
		C3.54,9.71,4.4,8.49,5.38,7.37c2.39-2.75,5.51-4.86,9.06-6.04c0.96-0.32,1.95-0.58,2.97-0.75c0.94-0.17,1.9-0.27,2.88-0.3
		c0.24-0.02,0.47-0.02,0.71-0.02s0.47,0,0.71,0.02c1.58,0.05,3.12,0.28,4.6,0.68c1.02,0.26,2.01,0.61,2.96,1.02
		c3.12,1.36,5.84,3.46,7.93,6.08c0.31,0.38,0.6,0.78,0.88,1.19c0.57,0.81,1.07,1.67,1.51,2.56c0.36,0.74,0.68,1.5,0.96,2.28
		c0.11,0.31,0.21,0.62,0.3,0.94c0.11,0.34,0.21,0.69,0.29,1.04c0.16,0.63,0.29,1.27,0.38,1.93C41.67,18.98,41.74,19.98,41.74,21z"/>
	<path class="st1" d="M40.38,28.37c-0.19,0.51-0.4,1-0.63,1.49c-0.41,0.86-0.87,1.69-1.4,2.48c-0.82,1.27-1.78,2.44-2.86,3.48
		l-6.22-3.73l-2.96-1.78l-0.75-0.45l-3.7-2.22l-1.23-0.74l-3.22-1.93l-2.97-1.78l-1.23-0.74L5.79,18L1.1,15.18
		c0.01-0.05,0.03-0.1,0.05-0.15c0.09-0.32,0.19-0.63,0.3-0.94c0.04-0.12,0.08-0.23,0.13-0.35c0.35-0.94,0.76-1.85,1.24-2.72
		C3.54,9.71,4.4,8.49,5.38,7.37l9.06,5.44l2.97,1.78l0.73,0.44l3.72,2.23L23.1,18l3.21,1.93l2.96,1.77l1.24,0.75l7.42,4.45
		L40.38,28.37z"/>
	<path class="st1" d="M41.14,16.07L37.92,18l-7.41,4.45l-1.24,0.74l-2.96,1.78l-3.22,1.93l-1.23,0.74l-3.71,2.22l-0.74,0.45
		l-2.97,1.78l-7.26,4.36c-0.39-0.34-0.76-0.7-1.11-1.07c-0.7-0.72-1.35-1.49-1.93-2.31c-0.72-1.01-1.36-2.08-1.89-3.21
		c-0.1-0.22-0.2-0.44-0.29-0.66l3.82-2.3l7.43-4.45l1.23-0.74l2.97-1.79L20.62,18l1.24-0.74l3.71-2.23l0.74-0.44l2.96-1.78
		l7.93-4.75c0.31,0.38,0.6,0.78,0.88,1.19c0.57,0.81,1.07,1.67,1.51,2.56c0.36,0.74,0.68,1.5,0.96,2.28
		c0.11,0.31,0.21,0.62,0.3,0.94C40.96,15.37,41.06,15.72,41.14,16.07z"/>
	<path class="st1" d="M29.27,1.98v38.04c-0.95,0.41-1.94,0.76-2.96,1.03c-1.48,0.39-3.02,0.62-4.6,0.67
		c-0.24,0.02-0.47,0.02-0.71,0.02s-0.47,0-0.71-0.02c-0.98-0.03-1.94-0.13-2.88-0.3c-1.02-0.17-2.01-0.43-2.97-0.75V1.33
		c0.96-0.32,1.95-0.58,2.97-0.75c0.94-0.17,1.9-0.27,2.88-0.3c0.24-0.02,0.47-0.02,0.71-0.02s0.47,0,0.71,0.02
		c1.58,0.05,3.12,0.28,4.6,0.68C27.33,1.22,28.32,1.57,29.27,1.98z"/>
	<path class="st1" d="M41.74,21c0,2.05-0.3,4.03-0.87,5.9c-0.09,0.34-0.2,0.68-0.32,1.01c-0.05,0.15-0.11,0.31-0.17,0.46
		c-0.19,0.51-0.4,1-0.63,1.49H2.25c-0.1-0.22-0.2-0.44-0.29-0.66c-0.19-0.42-0.36-0.85-0.51-1.29c-0.12-0.33-0.23-0.67-0.32-1.01
		c-0.57-1.87-0.87-3.85-0.87-5.9c0-1.02,0.07-2.02,0.22-3c0.14-0.97,0.35-1.91,0.62-2.82c0.01-0.05,0.03-0.1,0.05-0.15h39.7
		c0.11,0.34,0.21,0.69,0.29,1.04c0.16,0.63,0.29,1.27,0.38,1.93C41.67,18.98,41.74,19.98,41.74,21z"/>
	<path class="st2" d="M26.31,0.96v40.09c-1.48,0.39-3.02,0.62-4.6,0.67c-0.24,0.02-0.47,0.02-0.71,0.02s-0.47,0-0.71-0.02
		c-0.98-0.03-1.94-0.13-2.88-0.3V0.58c0.94-0.17,1.9-0.27,2.88-0.3c0.24-0.02,0.47-0.02,0.71-0.02s0.47,0,0.71,0.02
		C23.29,0.33,24.83,0.56,26.31,0.96z"/>
	<path class="st2" d="M41.74,21c0,2.05-0.3,4.03-0.87,5.9H1.13c-0.57-1.87-0.87-3.85-0.87-5.9c0-1.02,0.07-2.02,0.22-3h41.04
		C41.67,18.98,41.74,19.98,41.74,21z"/>
	<path class="st2" d="M39.75,29.86c-0.41,0.86-0.87,1.69-1.4,2.48l-4.14-2.48H39.75z"/>
	<path class="st2" d="M9.5,15.03H3.74l-2.16-1.29c0.35-0.94,0.76-1.85,1.24-2.72L9.5,15.03z"/>
	<path class="st2" d="M39.59,11.81l-5.37,3.22h-4.95v-0.49l8.81-5.29C38.65,10.06,39.15,10.92,39.59,11.81z"/>
	<path class="st2" d="M14.44,29.86v0.5l-8.37,5.02c-0.7-0.72-1.35-1.49-1.93-2.31l5.36-3.21H14.44z"/>
</g>
</svg>
