<?xml version="1.0" encoding="utf-8"?>
<!-- Generator: Adobe Illustrator 27.9.0, SVG Export Plug-In . SVG Version: 6.00 Build 0)  -->
<svg version="1.1" id="Layer_1" xmlns="http://www.w3.org/2000/svg" xmlns:xlink="http://www.w3.org/1999/xlink" x="0px" y="0px"
	 viewBox="0 0 42 42" style="enable-background:new 0 0 42 42;" xml:space="preserve">
<style type="text/css">
	.st0{fill:#009246;}
	.st1{fill:#FFFFFF;}
	.st2{fill:#CE2B37;}
	.st3{display:none;fill:none;stroke:#000000;stroke-width:0.25;stroke-miterlimit:10;}
</style>
<path class="st0" d="M10.5,3.4v35.1c-4-2.4-7.1-6.1-8.7-10.5c-0.8-2.2-1.2-4.5-1.2-7c0-2.5,0.4-4.8,1.2-7C3.4,9.6,6.5,5.8,10.5,3.4z
	"/>
<path class="st1" d="M31.5,3.4v35.1c-3.1,1.8-6.6,2.9-10.5,2.9s-7.4-1.1-10.5-2.9V3.4c3.1-1.8,6.6-2.9,10.5-2.9S28.4,1.6,31.5,3.4z"
	/>
<path class="st2" d="M41.4,21c0,2.5-0.4,4.8-1.2,7c-1.6,4.4-4.7,8.2-8.7,10.5V3.4c4,2.4,7.1,6.1,8.7,10.5C41,16.2,41.4,18.5,41.4,21
	z"/>
<path class="st3" d="M41.4,21c0,2.5-0.4,4.8-1.2,7c-1.6,4.4-4.7,8.2-8.7,10.5c-3.1,1.8-6.6,2.9-10.5,2.9s-7.4-1.1-10.5-2.9
	c-4-2.4-7.1-6.1-8.7-10.5c-0.8-2.2-1.2-4.5-1.2-7c0-2.5,0.4-4.8,1.2-7c1.6-4.4,4.7-8.1,8.7-10.5c3.1-1.8,6.6-2.9,10.5-2.9
	s7.4,1.1,10.5,2.9c4,2.4,7.1,6.1,8.7,10.5C41,16.2,41.4,18.5,41.4,21z"/>
</svg>
