<?xml version="1.0" encoding="utf-8"?>
<!-- Generator: Adobe Illustrator 26.5.0, SVG Export Plug-In . SVG Version: 6.00 Build 0)  -->
<svg version="1.1" id="Layer_1" xmlns="http://www.w3.org/2000/svg" xmlns:xlink="http://www.w3.org/1999/xlink" x="0px" y="0px"
	 viewBox="0 0 42 42" style="enable-background:new 0 0 42 42;" xml:space="preserve">
<style type="text/css">
	.st0{fill:#FFFFFF;}
	.st1{fill:#D52B1E;}
	.st2{fill:#0039A6;}
</style>
<path class="st0" d="M41.74,21H0.26c0-2.42,0.42-4.75,1.19-6.91C4.21,6.25,11.57,0.57,20.29,0.28h1.42
	c8.72,0.29,16.08,5.97,18.84,13.81C41.32,16.25,41.74,18.58,41.74,21z"/>
<path class="st1" d="M41.74,21c0,2.42-0.42,4.75-1.19,6.91c-2.76,7.84-10.12,13.52-18.84,13.81h-1.42
	c-8.72-0.29-16.08-5.97-18.84-13.81C0.68,25.75,0.26,23.42,0.26,21H41.74z"/>
<path class="st2" d="M41.74,21c0,2.42-0.42,4.75-1.19,6.91H1.45C0.68,25.75,0.26,23.42,0.26,21c0-2.42,0.42-4.75,1.19-6.91h39.1
	C41.32,16.25,41.74,18.58,41.74,21z"/>
</svg>
