<svg version="1.1" id="prefix__Layer_1" xmlns="http://www.w3.org/2000/svg" x="0" y="0" viewBox="0 0 42 42" xml:space="preserve"><style>.prefix__st0,.prefix__st2{fill-rule:evenodd;clip-rule:evenodd;fill:#d83943}.prefix__st2{fill:#fff}.prefix__st3{fill:#ffdd15}.prefix__st3,.prefix__st4{fill-rule:evenodd;clip-rule:evenodd}.prefix__st4,.prefix__st5{fill:#231f20}.prefix__st7{fill:#fff}.prefix__st8{fill-rule:evenodd;clip-rule:evenodd;fill:#006cb6}</style><path class="prefix__st0" d="M39.84 12.4H2.16C5.43 5.26 12.63.3 21 .3s15.57 4.96 18.84 12.1z"/><path d="M41.7 21c0 2.84-.57 5.54-1.61 8.01H1.9C.87 26.54.3 23.84.3 21c0-3.07.67-5.98 1.86-8.6h37.67c1.2 2.62 1.87 5.53 1.87 8.6z" fill-rule="evenodd" clip-rule="evenodd" fill="#003768"/><path class="prefix__st2" d="M40.1 29.01C36.97 36.46 29.6 41.7 21 41.7S5.03 36.46 1.9 29.01h38.2z"/><g><path class="prefix__st0" d="M12.7 10.7v13.42c0 2.4.93 4.58 2.44 6.16 1.5 1.58 3.58 2.56 5.87 2.56s4.36-.98 5.87-2.56a8.939 8.939 0 002.44-6.16V10.7H12.7z"/><path class="prefix__st3" d="M12.64 10.64v13.48c0 1.19.23 2.32.63 3.35a8.824 8.824 0 001.81 2.85c.77.81 1.69 1.47 2.72 1.91.49.22 1.01.38 1.54.49.53.11 1.09.17 1.65.17 1.13 0 2.21-.24 3.19-.67a8.594 8.594 0 003.76-3.23c.31-.48.57-.99.78-1.53a8.98 8.98 0 00.63-3.35V10.64H12.64zm16.61 13.48c0 1.17-.22 2.29-.63 3.31-.22.56-.49 1.09-.82 1.58-.29.44-.62.86-.98 1.24-.76.8-1.67 1.44-2.68 1.88-.49.21-.99.38-1.52.49-.53.11-1.07.17-1.63.17-1.11 0-2.18-.23-3.15-.66a8.261 8.261 0 01-2.68-1.89c-.36-.38-.69-.79-.98-1.24-.32-.49-.6-1.02-.82-1.58-.2-.51-.36-1.04-.46-1.6-.11-.55-.16-1.12-.16-1.71V10.76h16.49v13.36z"/><path class="prefix__st2" d="M29.19 18.73c-.3-.48-.27-.49-.34-.84-.07-.36-.02-1.02-.06-1.69-.04-.68-.21-1.06-.21-1.06.14.04.29.07.46.09 0 0-.61-.42-.87-.89-.26-.47-.59-1.28-.73-1.61-.14-.33-.74-.79-.9-.9-.12-.05-.38-.12-.36.2 0 .07.02.22.06.42.03.16.08.34.18.56.29 1.67-.05 2-.4 2.59-.35.59-.73.78-1.5 1.24-.78.46-1.16 0-1.16 0s-.36-.44-.38-.68c.11.1.23.18.34.18.33-.02.56-.35.28-.54 0 .16-.13.3-.37.27-.24-.03-.34-.39-.35-.53.02.02.11.12.25.19s.38-.04.42-.08c.08-.07.09-.31-.11-.33.04.2-.19.16-.19.16-.31-.04-.37-.53-.37-.53-.07-.46.11-.64.2-.69.07-.05.24-.22.24-.22-.02-.06-.07-.06-.16-.06-.05 0-.11 0-.18-.01.13-.27.54-1.01 1.26-.85.04-.02.71-.45.76-.57-.06-.07-.14-.11-.21-.16.01-.03.01-.06.01-.08-.01-.04-.03-.14-.19-.23s-.71-.1-.88-.1c-.17 0-.45.06-.67.11-.21.05-.56-.14-.56-.14s-.02.15.08.28c.1.13.26.16.36.16-.42.2-.85.76-.9.4-.13.05-.13.22-.1.27.02.03.16.2.58-.06-.17.31-.6.92-.95 1.01-.09.03-.21.03-.27-.04-.07.45.21.41.42.24l-.42.58-.3.62-.29-.66-.42-.58c.21.17.5.22.42-.24-.06.07-.18.07-.27.04-.35-.1-.78-.7-.95-1.01.42.27.56.09.58.06.03-.05.03-.21-.1-.27-.05.36-.49-.2-.9-.4.1 0 .26-.03.36-.16.1-.13.08-.28.08-.28s-.35.19-.56.14c-.21-.05-.49-.1-.67-.11-.17 0-.72.01-.88.1-.16.09-.19.19-.19.23 0 .02 0 .05.01.08-.02.08-.1.07-.16.15-.06.07.05.19.14.22.09.03.54.34.58.36.72-.16 1.13.54 1.19.82-.03.12-.28.09-.28.09s.16.18.24.22c.09.06.27.23.2.69 0 0-.06.5-.37.53 0 0-.23.04-.19-.16-.19.03-.19.26-.11.33.04.04.28.15.42.08.14-.07.23-.17.25-.19-.02.14-.12.51-.35.53-.24.03-.37-.11-.37-.27-.27.19-.04.52.28.54.13.01.28-.11.41-.25-.11.4-.45.74-.45.74s-.39.46-1.16 0c-.78-.46-1.16-.66-1.5-1.24-.35-.59-.69-.92-.4-2.59.1-.21.15-.4.18-.55.05-.21.06-.36.06-.42.02-.32-.24-.25-.36-.2-.17.11-.76.57-.9.9-.14.33-.47 1.14-.73 1.61-.26.47-.87.89-.87.89.16-.02.31-.05.46-.09 0 0-.16.38-.21 1.06-.04.68.01 1.34-.06 1.69-.07.36-.04.37-.34.84.17-.03.3-.06.4-.1-.01.25 0 .65.06 1.52.09.97.36 2.63.35 3.42.03.7-.05.93-.24 1.37.25.03.43-.09.56-.26 0 .38-.08.61-.32 1.01.87.05 1.15-1.08 1.15-1.08.73-.11.79-1.09.79-1.09.58-.07.62-.9.62-.9.6-.02.57-.71.57-.71.5.03.48-1.15.48-1.15v.01c.03.33.08.63.18.78.11.15.22.23.3.27v.03h6.59v-.03c.07-.04.19-.12.3-.27.1-.15.15-.45.18-.78v-.01s-.03 1.17.48 1.15c0 0-.03.69.57.71 0 0 .04.82.62.9 0 0 .05.98.79 1.09 0 0 .28 1.14 1.15 1.08-.24-.4-.32-.64-.32-1.01.13.18.31.29.56.26-.19-.45-.27-.68-.24-1.37-.01-.79.26-2.45.35-3.42.06-.87.07-1.27.06-1.52.08.09.21.12.38.15z"/><path class="prefix__st3" d="M17.78 13.92c-.02.04-.02.08 0 .11l.01.01c.05.06.09.12.46.19 0-.03 0-.06.01-.09.02-.05.06-.09.12-.12.02-.01.04-.01.06-.01.13 0 .35.12.47.19l.01.01v-.01l.01-.01c.02-.05.1-.24.03-.46 0-.01-.01-.02-.01-.03-.01-.01-.01-.02-.01-.03v-.01c0-.01-.01-.02-.01-.03v-.01c0-.01-.01-.02-.01-.03v-.01c0-.01-.01-.02-.01-.02l-.01-.01c-.01-.01-.01-.02-.02-.02l-.01-.01c0-.01-.01-.01-.02-.02l-.01-.01-.02-.02-.01-.01-.02-.02-.01-.02-.03-.03a.218.218 0 00-.05-.04c-.02-.01-.04-.03-.06-.04-.15-.09-.4-.2-.5-.22-.05-.01-.09-.02-.13-.02-.06-.01-.11-.01-.15-.04l-.01-.01s-.08-.11-.14-.15c-.03-.02-.07-.03-.11-.05-.05-.02-.09-.03-.11-.05-.02-.01-.04-.04-.06-.06-.03-.03-.1-.11-.12-.11-.02 0-.03 0-.05.01-.01 0-.02.01-.04.01a.09.09 0 01-.07-.03c-.01-.02-.02-.04-.02-.06 0-.06.03-.09.08-.08.02 0 .04.01.05.02a.3.3 0 01-.04-.08c-.01.01-.02.01-.03.02-.02.01-.04.02-.08.03-.1.04-.26.1-.29.17-.02.05-.09.23.01.4.09.16.17.28.24.35a.4.4 0 01.12-.27c.08-.08.17-.12.28-.11.09 0 .26.06.32.19h.03c.15 0 .93.04 1.12.73l.02.07-.06-.03c-.12-.06-.24-.11-.35-.12-.06 0-.21.04-.34.07h-.01c-.12.03-.22.06-.26.06-.08 0-.12-.01-.16-.03z"/><path class="prefix__st2" d="M17.36 12.57c.03.02.06.06.1.1l.05.05c.02.01.06.03.09.04.04.01.08.01.13.01.07-.01.11-.04.14-.06.03-.02.06-.04.11-.04h.04c.03.01.05.01.08.01-.07-.04-.12-.11-.17-.17-.06-.08-.12-.15-.18-.16-.03 0-.07 0-.11.01-.03.01-.05.02-.06.02-.07.03-.13.1-.17.14-.01.01-.02.02-.02.03l-.03.02z"/><path class="prefix__st3" d="M16.62 13.48c-.03 0-.04.01-.04.01-.02.02-.02.07-.01.12v.01c0 .02.02.19.17.26.06.03.14.04.23.04.13 0 .26-.03.37-.08l.08-.04c.24-.11.64-.3.8-.3h.01c.13 0 .04-.01-.04-.01h-.01c-.17 0-.47.12-.7.21-.18.07-.34.13-.41.13-.21.01-.28-.08-.34-.15-.03-.03-.04-.08-.05-.12-.03-.07-.03-.08-.06-.08zM17.18 12.52v.02c0 .01 0 .01.01.01l.01.01c.01 0 .01 0 .02-.01 0 0 .01 0 .02-.01 0 0-.01 0-.01-.01-.02 0-.03-.01-.05-.01zM24.22 13.92c.02.04.02.08 0 .11l-.01.01c-.05.06-.09.12-.46.19 0-.03 0-.06-.01-.09a.233.233 0 00-.12-.12c-.02-.01-.04-.01-.06-.01-.13 0-.35.12-.47.19l-.01.01v-.01l-.01-.01c-.02-.05-.1-.24-.03-.46 0-.01.01-.02.01-.03 0-.01.01-.02.01-.03v-.01c0-.01.01-.02.01-.03v-.01c0-.01.01-.02.01-.03v-.01c0-.01.01-.02.02-.02l.01-.01c.01-.01.01-.02.02-.02l.01-.01c0-.01.01-.01.02-.02l.01-.01.02-.02.01-.01.02-.02.01-.02.03-.03c.01-.01.03-.03.05-.04.02-.01.04-.03.06-.04.15-.09.4-.2.5-.22.05-.01.09-.02.13-.02.06-.01.11-.01.15-.04l.01-.01s.08-.11.14-.15c.03-.02.07-.03.11-.05.05-.02.09-.03.11-.05.02-.01.04-.04.06-.06.03-.03.1-.11.12-.11.02 0 .03 0 .05.01.01 0 .02.01.04.01.03 0 .05-.01.07-.03.01-.02.02-.04.02-.06 0-.06-.03-.09-.08-.08-.02 0-.04.01-.05.02a.3.3 0 00.04-.08c.01.01.02.01.03.02.02.01.04.02.08.03.1.04.26.1.29.17.02.05.09.23-.01.4-.09.16-.17.28-.24.35a.4.4 0 00-.12-.27.336.336 0 00-.28-.11c-.09 0-.26.06-.32.19h-.03c-.15 0-.93.04-1.12.73l-.02.07.06-.03c.12-.06.24-.11.35-.12.06 0 .21.04.34.07h.01c.12.03.22.06.26.06.07 0 .11-.01.15-.03z"/><path class="prefix__st2" d="M24.64 12.57c-.03.02-.06.06-.1.1l-.05.05c-.02.01-.06.03-.09.04-.04.01-.08.01-.13.01-.07-.01-.11-.04-.14-.06a.182.182 0 00-.11-.04h-.04c-.03.01-.05.01-.08.01.07-.04.12-.11.17-.17.06-.08.12-.15.18-.16.03 0 .07 0 .11.01.03.01.05.02.06.02.07.03.13.1.17.14.01.01.02.02.02.03l.03.02z"/><path class="prefix__st3" d="M25.38 13.48c.03 0 .04.01.04.01.02.02.02.07.01.12v.01c0 .02-.02.19-.17.26-.06.03-.14.04-.23.04a.91.91 0 01-.37-.08l-.08-.04c-.24-.11-.64-.3-.8-.3h-.01c-.13 0-.04-.01.04-.01h.01c.17 0 .47.12.7.21.18.07.34.13.41.13.21.01.28-.08.34-.15.03-.03.04-.08.05-.12.03-.07.03-.08.06-.08zM24.82 12.52v.02c0 .01 0 .01-.01.01l-.01.01c-.01 0-.01 0-.02-.01 0 0-.01 0-.02-.01 0 0 .01 0 .01-.01.02 0 .03-.01.05-.01z"/><path class="prefix__st4" d="M29.24 18.78l-.04-.06c-.26-.41-.27-.47-.31-.71V18c-.01-.03-.01-.07-.02-.11-.04-.2-.04-.49-.04-.83 0-.26 0-.56-.02-.86-.03-.52-.14-.87-.18-1.01.12.03.25.05.4.07h.01l.02-.04.01-.01-.01-.01c-.01 0-.6-.42-.86-.88-.22-.39-.49-1.03-.65-1.42l-.08-.19c-.04-.1-.12-.2-.21-.31-.24-.27-.6-.54-.7-.61h-.01c-.16-.06-.28-.06-.34.02-.04.05-.06.12-.06.22v.01c.01.1.01.22.04.36.03.19.1.41.23.69.24 1.44-.01 1.83-.32 2.33-.03.05-.06.1-.1.16-.32.53-.65.73-1.32 1.13l-.17.1c-.23.13-.44.2-.63.2-.32 0-.48-.19-.49-.2-.01-.01-.27-.33-.34-.56.11.08.21.13.29.12.2-.01.38-.14.43-.3.03-.11-.02-.22-.13-.3l-.05-.03v.06c0 .12-.09.24-.28.24h-.06c-.16-.02-.26-.22-.31-.41.06.05.12.09.18.12.03.02.08.03.12.03.14 0 .3-.08.34-.11.06-.05.08-.15.06-.24a.204.204 0 00-.18-.15l-.04-.01.01.05c.01.04 0 .07-.01.09-.03.03-.08.04-.11.04h-.04c-.28-.03-.34-.5-.34-.51-.06-.42.08-.59.18-.65l.04-.02c.11-.06.33-.18.44-.18.01 0 .03 0 .03.01.04.02.07.05.08.08.01.04 0 .08-.01.09l-.03.06.06-.01c.44-.08.5-.16.55-.23l.01-.01c.07-.09.01-.18-.01-.22l-.02-.03-.03.03c-.01.01-.04.04-.12.04-.04 0-.14-.03-.25-.06-.15-.04-.3-.08-.37-.08-.1.01-.2.05-.3.09.02-.06.05-.11.08-.16h.01c.22-.06.36-.1.53-.11.15 0 .55.19.77.29l.08.04c.12.05.26.08.4.08.1 0 .2-.02.26-.05a.4.4 0 00.22-.32v-.01c0-.06.01-.13-.03-.17-.02-.03-.05-.04-.1-.04h-.01c-.09 0-.11.08-.12.14-.01.03-.01.07-.03.09-.05.06-.1.13-.27.12-.06 0-.22-.06-.39-.13-.26-.1-.55-.21-.73-.21h-.01c-.17 0-.33.06-.45.11.29-.27.72-.29.83-.29h.07l.01-.02c.03-.11.18-.16.27-.17.09 0 .17.02.23.09.07.07.1.15.1.29v.06l.05-.03c.08-.05.19-.19.31-.41.11-.2.04-.41.01-.46-.04-.09-.17-.15-.28-.19-.02-.01-.03-.01-.05-.02a.239.239 0 01-.07-.03c-.03-.02-.05-.05-.05-.06-.01-.1-.08-.19-.21-.26-.18-.1-.76-.11-.83-.11h-.06c-.19 0-.48.06-.67.11-.02.01-.05.01-.07.01-.19 0-.43-.13-.46-.14l-.04-.02-.01.05c0 .01-.02.17.09.3.08.1.18.14.27.16-.01 0-.02.01-.02.01-.11.07-.21.15-.31.22-.14.11-.26.21-.34.22h-.01c-.03 0-.05-.02-.06-.08l-.01-.05-.04.02c-.01.01-.03.01-.04.02-.05.04-.08.09-.09.14-.01.05-.01.1.01.14 0 .01.01.01.01.02.01.02.09.12.26.1.07-.01.15-.03.24-.08-.11.17-.26.39-.43.56-.14.15-.3.28-.43.32-.05.01-.1.02-.15.01-.03-.01-.06-.02-.08-.04l-.05-.07-.01.08c-.02.12-.02.21.01.27.02.06.05.09.09.11.03.01.05.02.08.02.02 0 .04 0 .06-.01.03-.01.06-.02.08-.03l-.32.44c-.09.2-.18.39-.26.59l-.26-.59c-.1-.15-.21-.29-.32-.44.03.01.06.02.08.03.05.01.1.01.14-.01.04-.02.07-.06.09-.11.01-.03.02-.08.02-.13 0-.04 0-.09-.01-.14l-.01-.08-.05.07c-.02.02-.05.04-.08.04-.05.01-.1 0-.15-.01-.14-.04-.29-.16-.44-.31-.17-.18-.32-.39-.43-.56.1.05.18.07.24.08.17.02.25-.07.26-.1 0-.01.01-.01.01-.02.01-.02.01-.05.01-.08 0-.02 0-.04-.01-.06a.216.216 0 00-.09-.14c-.01-.01-.02-.02-.04-.02l-.04-.02-.01.05c-.01.07-.03.09-.07.08-.07-.01-.2-.11-.34-.22-.1-.08-.2-.16-.31-.22-.01-.01-.02-.01-.02-.02.09-.02.19-.06.27-.16.11-.14.09-.3.09-.3l-.01-.05-.04.03c-.03.01-.27.14-.46.14-.03 0-.05 0-.07-.01a3.9 3.9 0 00-.67-.11h-.07c-.07 0-.65 0-.83.11-.12.07-.19.16-.21.26 0 .02-.02.04-.05.06-.01.01-.04.02-.07.03-.02.01-.03.01-.05.02-.11.04-.24.1-.28.19-.03.06-.11.26.01.46.12.21.22.35.31.41l.05.03v-.06c0-.14.03-.22.1-.29.07-.07.14-.1.23-.09.09 0 .23.06.27.17l.01.02h.07c.11 0 .54.02.83.29-.11-.05-.28-.11-.45-.11h-.01c-.18 0-.47.11-.73.21-.17.06-.33.12-.39.13-.17.01-.22-.06-.27-.12-.02-.02-.02-.06-.03-.09-.01-.06-.03-.14-.12-.14h-.01c-.04 0-.07.02-.1.04-.04.05-.04.12-.03.17v.01c.01.11.07.26.22.32.07.03.16.05.26.05.14 0 .28-.03.4-.08l.08-.04c.22-.1.62-.29.77-.29.16.01.31.04.53.11h.01c.03.05.06.1.08.16a.732.732 0 00-.3-.09c-.07-.01-.22.04-.37.08-.1.03-.21.06-.25.06-.08 0-.11-.03-.12-.04l-.03-.03-.02.03c-.02.03-.08.13-.01.22l.01.01c.06.07.11.15.55.23l.06.01-.03-.06c-.01-.01-.02-.05-.01-.09.01-.03.04-.06.08-.08.01 0 .02-.01.03-.01.11 0 .32.12.44.18l.04.02c.09.06.24.23.18.65 0 .01-.06.47-.34.51h-.03c-.03 0-.08 0-.11-.04-.02-.02-.02-.05-.01-.09l.01-.04-.04.01c-.09.01-.16.07-.18.15-.03.09 0 .19.06.24.04.03.2.11.34.11.05 0 .09-.01.12-.03.06-.03.13-.07.18-.12-.05.19-.15.39-.31.41-.11.01-.21-.01-.26-.07-.05-.04-.07-.1-.07-.17v-.06l-.05.03c-.11.08-.16.19-.13.3.04.16.22.29.43.3.1.01.21-.05.34-.16-.13.32-.38.59-.4.61 0 0-.17.19-.49.19-.19 0-.41-.07-.63-.2l-.17-.1c-.67-.4-1-.6-1.32-1.13-.03-.05-.06-.11-.09-.16-.31-.5-.55-.89-.32-2.33.13-.27.19-.5.23-.69.02-.14.03-.26.04-.36v-.01c.01-.1-.01-.17-.06-.22-.07-.07-.18-.08-.35-.02-.1.07-.46.33-.7.61-.09.1-.17.21-.21.31-.02.05-.04.1-.07.16l-.01.03c-.16.38-.43 1.02-.65 1.42-.25.46-.85.88-.86.88l-.01.01.01.01.02.04H13c.15-.02.28-.04.4-.07-.05.14-.15.49-.19 1.01-.02.3-.02.6-.02.86 0 .34 0 .63-.04.83-.01.04-.01.07-.02.11v.01c-.05.24-.06.3-.31.71l-.04.06.07-.01c.15-.02.27-.05.37-.09 0 .22 0 .6.06 1.48.03.35.09.77.14 1.23.1.82.21 1.68.21 2.19.03.69-.05.92-.24 1.36l-.02.04H13.48c.16 0 .3-.06.42-.17l.04-.04c-.01.34-.09.53-.32.91l-.03.05h.11c.77 0 1.07-.95 1.11-1.09.67-.12.78-.96.79-1.09.51-.09.6-.74.62-.9.16-.01.29-.07.39-.18.16-.18.18-.44.19-.53.08 0 .15-.04.21-.1.15-.15.22-.45.24-.71.03.2.08.35.14.43a.9.9 0 00.24.24c.02.01.04.03.06.03.01 0 .01.01.02.01l.02.01v-.07h-.01c-.01-.01-.02-.01-.03-.02a.92.92 0 01-.25-.24c-.15-.22-.18-.81-.21-1.28v-.09c-.02-.43-.15-1.15-.18-1.32.08 0 .15-.04.2-.1.15-.16.19-.47.19-.74.06.27.13.63.19.91.02.13.05.24.06.31v.01c0 .02.01.05.01.08h.02v-.27c-.01-.05-.02-.11-.03-.17-.02-.09-.04-.19-.06-.29-.05-.26-.11-.53-.14-.69.05.07.1.12.14.15.02.02.04.03.06.04.01 0 .01.01.02.01l.02.01v-.07h-.01c-.01-.01-.02-.01-.03-.02a.265.265 0 01-.06-.05c-.1-.09-.21-.25-.27-.55 0-.03-.01-.07-.02-.1v-.01l-.06.01v.01c.01.03.01.07.02.1 0 .07-.01.13-.04.16-.02.02-.05.03-.09.02-.06-.01-.26-.12-.44-.79v-.01l-.06.01v.01c-.01.12-.11.28-.24.28-.08 0-.28-.07-.33-.77v-.01h-.06v.01c.01.14-.09.33-.19.34h-.01c-.06 0-.26-.07-.37-.98v-.01h-.06v.01c-.02.08-.11.33-.22.34-.07.01-.16-.09-.25-.29-.21-.47.13-1.7.33-2.09.1-.14.18-.27.26-.41-.19 1.31.06 1.72.35 2.19v.01l.09.15c.33.55.67.75 1.34 1.15.05.03.11.06.17.1.23.14.45.21.66.21.36 0 .54-.21.54-.21.01-.01.34-.36.45-.75.11-.12.21-.26.27-.35-.02.25-.03.76.19 1.02l.1.12.02-.01c.01 0 .47-.19.59-.65.08.38.23.73.38.9l.06.06h.51a.17.17 0 00.06-.06c.15-.16.3-.51.38-.9.12.46.59.65.59.65l.02.01.1-.12c.22-.26.21-.78.19-1.02.07.11.2.29.34.42.03.26.37.67.37.68 0 0 .18.22.54.22.21 0 .43-.07.66-.21.06-.03.11-.07.17-.1.68-.4 1.02-.6 1.34-1.15l.09-.15v-.01c.29-.47.54-.88.35-2.19.07.13.16.27.26.4.2.39.54 1.62.33 2.09-.09.2-.17.29-.25.29-.11-.01-.2-.25-.22-.34v-.01h-.06v.01c-.11.91-.31.98-.37.98h-.01c-.11-.01-.2-.21-.19-.34v-.01h-.06v.01c-.06.69-.25.77-.33.77-.12 0-.23-.15-.24-.28v-.01l-.06-.01v.01c-.18.68-.39.78-.44.79-.03.01-.06 0-.09-.02-.03-.03-.05-.09-.04-.16.01-.03.01-.06.02-.1v-.01l-.06-.01v.01c-.01.03-.02.07-.02.1-.06.29-.18.46-.27.55-.02.02-.04.03-.06.05-.01.01-.02.01-.03.02h-.01v.08l.02-.01c.01 0 .01-.01.02-.01a.21.21 0 00.06-.04c.05-.03.09-.08.14-.15-.03.16-.09.43-.14.69-.02.1-.04.2-.06.29-.01.06-.02.12-.03.17v.27h.02c0-.03.01-.06.01-.08v-.01c.01-.07.03-.18.06-.31.05-.28.13-.64.19-.91.01.27.05.58.19.74.06.06.13.09.2.1-.03.17-.16.89-.18 1.32v.09c-.03.47-.06 1.06-.21 1.28-.06.09-.13.16-.19.2-.02.02-.04.03-.06.04-.01.01-.02.01-.03.02h-.01v.07l.02-.01c.01 0 .01-.01.02-.01l.06-.03c.07-.05.16-.13.24-.24.06-.09.11-.23.14-.43.03.25.09.55.24.71.06.06.13.09.21.1 0 .09.02.35.18.53.1.11.23.17.39.18.01.16.1.81.62.9.02.18.13.97.79 1.09.04.14.34 1.09 1.11 1.09h.11l-.03-.05c-.23-.38-.31-.57-.32-.91.01.02.03.03.04.04.12.11.26.17.42.17H28.6l-.02-.04c-.18-.44-.26-.67-.24-1.36-.01-.5.1-1.36.21-2.19.06-.45.11-.88.14-1.23.06-.87.06-1.26.06-1.47.1.03.22.06.37.09l.12-.03zm-5.42-5.29h.01c.17 0 .47.12.7.21.18.07.34.13.41.13.21.01.28-.08.34-.15.03-.03.04-.08.05-.12.01-.07.02-.08.05-.08.03 0 .04.01.04.02.02.02.02.07.01.12v.01c0 .02-.02.18-.17.26-.06.03-.14.04-.23.04-.06 0-.13-.01-.19-.02-.03-.01-.06-.01-.09-.02a.689.689 0 01-.08-.03l-.08-.04c-.24-.11-.64-.3-.8-.3h-.01c-.14-.02-.04-.03.04-.03zm-5.6.01c-.16 0-.56.19-.8.3l-.08.04c-.03.01-.05.02-.08.03-.03.01-.06.02-.09.02-.06.01-.13.02-.19.02-.09 0-.17-.01-.23-.04-.16-.07-.17-.24-.17-.26v-.01c0-.04-.01-.09.01-.12.01-.01.02-.01.04-.02.02 0 .03.01.05.08.01.04.02.09.05.12.05.07.13.16.34.15.08 0 .23-.06.41-.13.24-.09.54-.2.7-.21h.01c.07.02.17.03.03.03zm10.31 7.88c-.1.83-.21 1.69-.21 2.19-.03.7.05.93.23 1.35-.15 0-.29-.05-.4-.15-.43-.4-.42-1.47-.42-1.49-.02-.43.15-1.91.28-3.09.07-.67.14-1.26.16-1.54.03-.21.05-.48.06-.74.02.09.04.17.07.23.12.25.19.42.43.53 0 .22 0 .61-.06 1.5-.03.33-.08.75-.14 1.21zm-1.28 3.23c-.17-.87-.2-1.52-.12-2.42.04-.49.14-1.33.23-2.08v-.01c.08-.68.15-1.27.17-1.5v-.04c0-.13.02-.35.04-.57v-.04c.03.18.15.65.55.71-.02.29-.08.85-.16 1.5v.01c-.13 1.19-.29 2.67-.28 3.1 0 .04-.01.95.34 1.43H28v.01c0 .38.09.59.3.95-.78 0-1.05-1.04-1.05-1.05zm1.11-6.51c-.15-.32-.14-1.05-.13-1.4v-.02-.1c0-.23-.05-1.18-.29-1.67.19.12.38.21.6.27.03.08.16.44.2 1.03.02.3.02.59.02.86 0 .34 0 .64.04.84.01.04.02.08.02.12.05.24.06.31.28.67-.51-.1-.58-.25-.74-.6zm-3.17-5.48c.02.05.09.22-.01.4-.05.08-.09.15-.13.21-.02.03-.04.06-.06.08-.02.02-.04.04-.05.06a.4.4 0 00-.12-.27.336.336 0 00-.28-.11c-.09 0-.26.06-.32.19h-.16c-.02 0-.05.01-.08.01-.02 0-.05.01-.08.01-.01 0-.03.01-.04.01-.01 0-.02.01-.03.01-.01 0-.02.01-.03.01h-.01-.01c-.02.01-.03.01-.05.02-.04.01-.09.03-.13.05-.02.01-.05.02-.07.03-.01.01-.02.01-.04.02-.06.04-.12.08-.17.13-.01.01-.02.03-.04.04-.01.01-.02.02-.03.04l-.03.03c-.01.01-.01.02-.02.03-.01.01-.02.02-.02.04-.03.05-.06.1-.08.17-.01.02-.01.04-.02.06l-.02.06v.01l.01-.01.05-.02c.12-.06.24-.11.35-.12.06-.01.21.04.34.07h.01c.12.03.22.06.26.06.05 0 .1-.01.13-.03.02.04.02.08 0 .11l-.01.01c-.05.06-.09.12-.46.19 0-.03 0-.06-.01-.09 0-.01-.01-.02-.02-.03-.01-.01-.02-.02-.02-.03l-.03-.03a.076.076 0 00-.04-.02c-.02-.01-.04-.01-.06-.01h-.04c-.01 0-.03.01-.04.01-.01 0-.02.01-.03.01-.01 0-.02.01-.03.01-.08.03-.16.06-.23.1-.04.02-.07.04-.1.05l-.01.01v-.01l-.01-.01c-.01-.03-.04-.09-.05-.18v-.04-.01-.03-.05-.04c0-.02.01-.03.01-.05 0-.02.01-.03.01-.05 0-.01.01-.02.01-.03.01-.01.01-.02.01-.03v-.01c0-.01.01-.02.01-.03v-.01c0-.01.01-.02.01-.03l.01-.01c0-.01.01-.02.01-.02l.01-.01c.01-.01.01-.02.02-.02l.01-.01c0-.01.01-.01.01-.02l.01-.01.02-.02.01-.01.02-.02.01-.02.03-.03c.01-.01.03-.03.05-.04.02-.01.04-.03.06-.04.08-.05.2-.1.29-.15.02-.01.03-.02.05-.02h.01c.01-.01.02-.01.04-.01.04-.02.08-.03.1-.03.05-.01.09-.02.13-.02.06-.01.11-.01.15-.04l.01-.01s.08-.11.14-.15c.03-.02.07-.03.11-.05.05-.02.09-.03.12-.05l.06-.06c.03-.03.1-.11.12-.11.02 0 .03 0 .05.01.01 0 .02.01.04.01s.05-.01.07-.03c.02-.02.02-.04.02-.06 0-.05-.03-.09-.08-.08-.02 0-.04.01-.05.02.02-.02.03-.05.04-.07v-.01l.01.01s.01 0 .01.01c0 0 .01 0 .01.01l.01.01c.01 0 .02.01.03.01.01 0 .02.01.03.01.11.02.28.08.31.16zm-1.19.05c-.01 0-.03.01-.04.01-.01 0-.03 0-.04.01.07-.04.12-.11.17-.17.02-.03.05-.06.07-.09l.02-.02c-.01.04-.01.08 0 .12.02.05.05.1.1.13s.11.03.16.02c.05-.02.1-.05.13-.1.01-.02.01-.03.02-.04.01.01.02.02.02.03l.01.01.01.01h.01c-.03.02-.06.06-.1.1l-.02.02c-.01.01-.01.02-.02.02l-.01.01s-.01 0-.01.01l-.01.01c-.01 0-.02.01-.03.01-.02.01-.03.01-.05.02-.04.01-.08.01-.13.01-.07-.01-.11-.04-.14-.06a.182.182 0 00-.11-.04h-.02c.02-.03.01-.03.01-.03zm-1.08-.33c-.08 0-.24-.03-.34-.15a.311.311 0 01-.07-.21c.09.04.28.13.44.13.03 0 .06 0 .09-.01.19-.05.48-.1.66-.11h.06c.24 0 .67.02.8.1.1.06.16.13.17.2v.01c0 .04-.01.07-.02.1a.19.19 0 01-.07.08c-.02-.02-.04-.05-.07-.08-.03-.03-.07-.07-.12-.08a.731.731 0 00-.24-.05h-.24c-.04.01-.07.01-.1.02-.14.03-.3.05-.47.06h-.17c-.12 0-.22-.01-.28-.01h-.03zm1.84.2s.01 0 0 0c.01 0 .01-.01.01-.01.01-.01.02-.01.03-.02h.01v.02c0 .01 0 .01-.01.01l-.01.01c-.01 0-.01 0-.02-.01.01.01 0 .01-.01 0zm-6.92-.11c.01.01.02.02.02.03.02.02.03.04.05.06.05.07.1.13.17.17-.01 0-.03 0-.04-.01-.01 0-.03-.01-.04-.01h-.03c-.05 0-.08.02-.11.04s-.06.05-.14.06c-.04.01-.08 0-.13-.01-.02-.01-.03-.01-.05-.02-.01-.01-.02-.01-.03-.01 0 0-.01 0-.01-.01l-.05-.05c-.04-.04-.07-.08-.1-.1h.01l.02-.01c.01-.01.02-.02.02-.03 0 .01.01.03.02.04.03.05.07.09.13.1.05.02.11.01.16-.02s.09-.07.1-.13c.01-.04.01-.08 0-.12l.03.03zm-.04-.17h-.02c-.12.01-.2.04-.24.05a.36.36 0 00-.12.08c-.03.03-.05.06-.07.08a.572.572 0 01-.07-.08c-.02-.03-.02-.06-.02-.1v-.01c.01-.07.07-.14.17-.2.13-.08.56-.1.8-.1h.06c.18 0 .47.06.66.11.03.01.06.01.09.01.16 0 .35-.08.44-.13 0 .05-.02.13-.07.21-.1.12-.25.14-.34.15h-.05c-.06 0-.16.01-.28.01h-.17c-.17-.01-.32-.03-.47-.06-.03-.01-.06-.01-.1-.02H17.81h-.01zm1.02 1.9c-.03-.02-.06-.03-.1-.05-.02-.01-.03-.02-.05-.02-.02-.01-.03-.02-.05-.02-.02-.01-.05-.02-.07-.03-.02-.01-.04-.01-.06-.02h-.06c-.02 0-.04 0-.06.01-.06.03-.1.07-.12.12-.01.03-.01.06-.01.09-.37-.07-.42-.13-.46-.19l-.01-.01c-.02-.03-.02-.06-.01-.11.03.02.08.03.13.03.04 0 .15-.03.26-.06h.01c.13-.04.28-.08.34-.07.11.01.23.06.35.12l.06.03-.02-.07c-.01-.04-.03-.08-.04-.12l-.03-.06c-.01-.02-.02-.04-.03-.05-.01-.02-.03-.04-.04-.06-.03-.04-.06-.08-.1-.12l-.02-.02a.218.218 0 00-.05-.04c-.01-.01-.02-.02-.03-.02-.02-.01-.03-.02-.05-.04-.01-.01-.02-.01-.03-.02l-.06-.03c-.01 0-.02-.01-.02-.01l-.06-.03a.697.697 0 00-.19-.06c-.02-.01-.04-.01-.06-.01-.01 0-.03-.01-.04-.01-.01 0-.03 0-.04-.01-.01 0-.02 0-.03-.01h-.03c-.02 0-.04 0-.06-.01h-.12c-.06-.13-.22-.18-.32-.19-.11 0-.2.03-.28.11-.07.07-.11.16-.12.27-.07-.06-.15-.18-.24-.35-.1-.18-.03-.35-.01-.4 0-.01.01-.01.01-.01 0-.01.01-.01.01-.01l.01-.01c.01-.01.02-.01.03-.02.01-.01.02-.01.02-.02h.01c.02-.01.05-.02.07-.04.05-.02.1-.04.14-.06.03-.01.06-.02.08-.03.01 0 .01-.01.02-.01h.02v.02c0 .01 0 .01.01.02v.02c.01.01.01.02.02.03a.076.076 0 00-.05-.02c-.05 0-.08.03-.08.08 0 .02.01.04.02.06.02.02.04.03.07.03.02 0 .03-.01.04-.01.01-.01.02-.01.05-.01.02 0 .09.08.12.11.02.02.04.05.06.06.02.02.07.03.11.05.04.01.09.03.11.05.02.01.04.03.06.05l.02.02c.02.02.04.04.05.06l.01.01.01.01c.04.02.09.03.15.04.04 0 .09.01.14.02.01 0 .03.01.05.01 0 0 .01 0 .01.01.01 0 .01 0 .02.01.03.01.07.02.1.04.04.02.08.04.13.06.02.01.03.01.05.02.02.01.03.02.05.02.02.01.04.02.05.03.01.01.02.01.03.02.02.01.04.03.06.04.02.02.04.03.05.04l.03.03.02.02.02.02.01.01.02.02.01.01.02.02.01.01c.01.01.01.02.02.02l.01.01c.01.01.01.02.02.02v.01c.01.01.01.02.01.03v.01c.01.01.01.02.01.03v.01s0 .01.01.01c0 .01 0 .01.01.02 0 .01.01.02.01.03.07.22 0 .41-.03.46l-.01.01v.01l-.01-.01c-.01-.01-.03-.01-.04-.02-.01 0-.02-.01-.03-.02-.01-.01-.02-.02-.03-.02zm-1.58-1.62c-.01 0-.01.01-.02.01s-.01.01-.02.01c0 0-.01 0-.01-.01l-.01-.01v-.02h.01c.01 0 .02.01.03.02h.02zm-2.76 6.06c.02.24.09.83.17 1.5v.01c.09.75.19 1.59.23 2.08.08.9.04 1.55-.12 2.42 0 .01-.27 1.06-1.05 1.06.21-.36.3-.57.3-.95v-.02H14c.35-.47.34-1.39.34-1.42.02-.44-.15-1.92-.28-3.1v-.01c-.07-.65-.13-1.21-.16-1.51.4-.06.52-.53.55-.71v.04c.02.22.03.44.03.57v.04zm-.5 1.57v.02c.13 1.18.29 2.66.28 3.09 0 .01.01 1.08-.41 1.48-.11.11-.25.16-.4.15.17-.41.25-.65.23-1.34.01-.51-.1-1.37-.21-2.2-.06-.45-.11-.88-.14-1.22-.06-.89-.06-1.28-.06-1.5.24-.11.32-.28.43-.53.03-.06.05-.14.07-.23.01.26.03.53.06.74.02.29.08.87.15 1.54zm-.21-3.49v.02c0 .35.01 1.07-.13 1.4-.16.35-.23.5-.75.59.23-.37.24-.44.28-.67.01-.03.01-.07.02-.12.04-.2.04-.5.04-.84 0-.26 0-.56.02-.85.04-.59.17-.95.2-1.03.22-.06.41-.15.6-.27-.24.49-.29 1.44-.29 1.67.01.03.01.06.01.1zm1.49 2.49c-.04-.22-.06-.4-.08-.51.24-.06.39-.31.46-.73.03.13.08.39.14.71.01.15.05.39.1.7.15.88.37 2.21.27 3.28v.04c-.01.15-.1.73-.54.82.14-1.2-.2-3.3-.35-4.31zm1.47 2.75v.03c0 .08-.02.32-.17.48-.08.09-.2.14-.34.16.09-1.08-.13-2.39-.27-3.26-.05-.29-.09-.52-.1-.67.22-.07.37-.26.43-.55.02.25.04.47.07.64.02.16.09.54.16.94.06.32.11.65.15.89.09.53.1.7.07 1.34zm.44-1.74v.09c.01.15.02.33.03.51 0 .01.01.78-.24 1.04-.05.05-.1.07-.17.08.03-.61.02-.79-.06-1.33-.04-.25-.1-.59-.15-.89-.07-.38-.13-.74-.16-.91.21-.07.36-.24.44-.5.02.13.07.34.12.58.01.02.16.86.19 1.33zm-.27-2.07c.05-.24.04-.49.02-.64.1.16.19.21.24.22.06.02.11 0 .15-.04.01-.01.02-.03.03-.05.01.03.02.07.04.1 0 .03.07.78-.17 1.02-.05.05-.1.08-.17.08-.08-.35-.14-.66-.14-.69zm-.47-.93c.12 0 .22-.11.27-.22.04.14.09.26.13.36.01.05.19 1.14-.42 1.38-.06-.39-.09-.9-.09-1 0-.23-.03-.45-.06-.58.07.05.13.06.17.06zm-.59-.42c.08-.01.16-.08.21-.2.03.17.07.32.12.41.01.04.09.39.09.75 0 .49-.14.78-.42.87-.09-.48-.16-.8-.16-.8v-.01h-.01c.04-.42 0-.9-.03-1.17.07.14.15.16.2.15zm-.76-.67c.03.02.06.03.1.03h.01c.11-.01.18-.14.23-.25.03.21.07.39.12.53 0 .02.33 2.01-.36 2.2-.06-.5-.09-.98-.09-1v-.01h-.02c-.03-.51 0-1.34.01-1.5zm.03 2.55c.01.1.04.29.08.54.16 1.02.5 3.16.35 4.34v.04c-.02.18-.13.89-.71 1.01.16-.85.19-1.5.12-2.39-.04-.49-.14-1.34-.23-2.08-.08-.65-.15-1.27-.17-1.51.2-.04.43-.24.5-.59.01.17.03.4.06.64zm-.24-2.85c.05.11.1.19.15.24h-.01v.01c0 .01-.05 1.1-.01 1.65.03.52-.26.78-.46.83 0-.14-.02-.34-.03-.53-.02-.23-.04-.46-.03-.59.01-.5.02-1.14.02-1.14 0-.99.31-1.64.47-1.93-.09.32-.27 1.09-.1 1.46zm.15-1.67c-.02.03-.6.76-.6 2.13 0 .06-.01 1.42-.04 1.66-.02.15-.12.62-.49.68-.03-.29-.07-.75-.06-1.21v-.01c.01-.26.01-.53.01-.68v-.02-.1c0-.26.06-1.33.35-1.75.27-.2.55-.47.87-.87.02-.02.03-.04.05-.06-.04.07-.06.15-.09.23zm-.02-.21c-.75.93-1.25 1.17-1.9 1.27.19-.15.58-.48.77-.83.22-.4.49-1.04.65-1.43l.08-.19c.04-.1.13-.22.24-.33.22-.24.52-.46.64-.55.06-.02.12-.04.17-.04.05 0 .08.01.1.04.03.03.04.09.04.17v.01c-.01.1-.01.22-.04.37 0 .01-.01.02-.01.04l-.03.11v.01l-.03.09c-.03.1-.07.22-.13.34h-.03l-.01.08c-.09.27-.28.55-.51.84zm7.59 1.69l-.06.01v.01c0 .01.12.79-.16 1.11l-.07.08c-.11-.05-.55-.28-.56-.78v-.01h-.06v.01c-.07.52-.29.99-.44 1.1h-.45c-.16-.12-.38-.59-.45-1.1v-.01h-.06v.01c-.01.5-.45.74-.56.78l-.07-.08c-.28-.33-.16-1.11-.16-1.11v-.01l-.06-.02v.01c0 .01-.41.7-.72.7h-.01c-.17-.01-.33-.12-.37-.25-.02-.07 0-.14.06-.19.01.06.04.11.08.15.07.07.19.1.32.09.25-.03.36-.37.38-.56.02-.03.1-.18.14-.37v-.01l-.06-.01v.01c-.04.19-.13.34-.14.36-.03.03-.11.11-.23.18-.03.01-.06.02-.09.02-.13 0-.27-.07-.29-.1-.04-.03-.05-.11-.04-.17.01-.03.03-.07.09-.09 0 .04.01.07.03.09.04.05.11.06.16.06h.04c.33-.04.4-.54.4-.56.07-.43-.08-.62-.18-.7l.01-.02s.01-.01.01-.02a.69.69 0 00.03-.49c0-.01-.01-.02-.01-.03v-.01c0-.01-.01-.02-.01-.03l-.03-.01-.02-.04-.01-.02c0-.01-.01-.02-.01-.02l-.01-.01c0-.01-.01-.01-.01-.02l-.02-.04-.01-.01v-.01c0-.01-.01-.01-.01-.02s-.01-.01-.02-.02l-.01-.01-.02-.02-.01-.01a.138.138 0 00-.04-.03c-.11-.12-.52-.29-.64-.32A.373.373 0 0018 13c-.05-.01-.1-.01-.12-.02a.757.757 0 00-.13-.14c.08-.02.12-.05.15-.07a.09.09 0 01.07-.03H18c.05.01.09.02.13.02.16 0 .21-.08.21-.09l-.04-.05c-.03.02-.07.03-.1.03-.09 0-.16-.09-.23-.18a.304.304 0 01-.05-.07c-.03-.03-.05-.06-.08-.08h.05c.03 0 .07 0 .11.01h.05c.02 0 .04.01.05.01.12.02.24.04.39.05H19.16c.01.01.03.02.04.02.01.01.02.01.03.02.03.02.06.04.1.06.01.01.03.02.05.03.07.05.14.11.21.16.01.01.03.02.04.03.06.05.12.09.17.11.01.01.02.01.02.01.02.01.03.01.05.02h.02c.05 0 .08-.03.09-.12.13.05.13.22.1.27-.02.03-.17.2-.58-.06.17.31.6.92.95 1.01.09.03.21.03.27-.04.07.45-.21.41-.42.24l.42.58.28.68.3-.66.42-.58c-.21.17-.5.21-.42-.24.06.07.18.07.27.04.35-.1.78-.7.95-1.01-.41.27-.56.09-.58.06-.03-.05-.03-.21.1-.27.01.08.04.12.09.12h.02c.05-.01.11-.04.17-.09.02-.01.03-.02.05-.03.02-.01.03-.02.05-.04.02-.02.04-.03.07-.05.01-.01.03-.02.04-.03.08-.06.17-.13.26-.19.01-.01.02-.01.03-.02.01-.01.03-.02.04-.02h.67c.14-.01.27-.03.39-.05.02 0 .04-.01.05-.01h.05c.04 0 .07-.01.11-.01h.05c-.03.02-.05.05-.08.08a.18.18 0 00-.05.07c-.07.09-.14.18-.23.18-.03 0-.06-.01-.1-.03l-.04.05s.05.09.21.09c.04 0 .09-.01.14-.02h.03c.03 0 .04.01.07.03.03.02.07.05.15.07-.06.05-.12.13-.13.14-.06 0-.1 0-.15.01-.05.01-.09.01-.14.02-.11.03-.52.2-.64.32-.01.01-.02.02-.04.03l-.01.01-.02.02-.01.01c-.01.01-.01.02-.02.02 0 .01-.01.01-.01.02v.01c0 .01-.01.01-.01.01l-.02.04c-.01.01-.01.01-.01.02l-.01.01c0 .01-.01.02-.01.02l-.01.02c-.01.01-.01.03-.02.04l-.01.02c0 .01-.01.02-.01.03v.01c0 .01-.01.02-.01.03-.04.15-.04.34.03.49 0 .01.01.01.01.02l.01.02c-.1.08-.24.27-.18.7 0 .02.07.52.4.56h.05c.05 0 .12-.01.16-.06.02-.02.03-.06.03-.09.05.02.08.06.09.09.02.06 0 .14-.04.17-.03.02-.17.1-.29.1a.2.2 0 01-.09-.02.606.606 0 01-.23-.18c0-.01-.1-.17-.14-.36v-.01l-.06.01v.01c.04.19.13.34.14.37.02.18.13.53.38.56h.06c.18 0 .31-.1.34-.24.06.06.08.12.06.19-.04.13-.19.24-.37.25h-.01c-.34.02-.75-.68-.75-.69zm3.86-2.53l-.01-.08h-.03a2.55 2.55 0 01-.15-.44c-.01-.02-.01-.04-.02-.06 0-.02-.01-.04-.01-.06v-.03c-.03-.15-.03-.27-.04-.37v-.01c0-.08.01-.14.04-.17.05-.05.15-.05.27 0 .13.09.42.31.64.55.11.12.2.23.24.33.02.05.05.11.08.18h.01l-.01.01c.16.38.43 1.03.65 1.43.19.35.58.68.77.83-.65-.1-1.15-.34-1.9-1.27-.21-.29-.4-.57-.53-.84zm.45.82c.02.02.03.04.05.06.32.4.6.67.87.87.29.43.35 1.5.35 1.76V16.7c0 .16-.01.42.01.68v.01c.01.46-.02.92-.06 1.21-.37-.06-.47-.54-.49-.68-.03-.24-.04-1.65-.04-1.66 0-1.37-.57-2.1-.6-2.13-.04-.09-.06-.17-.09-.24zm.23 1.9c.17-.37 0-1.14-.09-1.46.17.28.47.94.47 1.93 0 .01 0 .64.02 1.14 0 .13-.02.36-.04.59-.02.2-.03.4-.03.53-.2-.05-.49-.3-.46-.83.03-.54-.01-1.64-.01-1.65v-.01h-.01c.05-.05.1-.13.15-.24zm.33 2.8c-.02.24-.09.86-.17 1.51a68.5 68.5 0 00-.23 2.08c-.07.89-.04 1.54.12 2.39-.58-.12-.69-.83-.71-1.01l-.01-.04c-.15-1.19.19-3.32.35-4.34v-.01c.04-.25.07-.44.08-.53.03-.24.05-.47.07-.65.06.36.3.56.5.6zm-1.62 4.03c-.1-1.07.12-2.4.27-3.28.05-.31.09-.55.1-.7.06-.32.12-.58.14-.71.07.42.22.67.46.73-.01.1-.04.28-.08.51-.16 1.01-.49 3.11-.35 4.32-.44-.09-.53-.68-.54-.82v-.05zm-.57-.7c-.03-.64-.02-.81.06-1.35.04-.25.1-.59.15-.89.07-.38.14-.78.16-.94.03-.21.06-.45.07-.64.07.3.21.49.43.55-.01.15-.05.38-.1.67-.15.87-.37 2.18-.28 3.26a.477.477 0 01-.34-.16c-.15-.16-.17-.4-.17-.48l.02-.02zm1.2-5.52c.05-.14.09-.32.12-.53.05.12.12.24.23.25.04 0 .07-.01.11-.03.01.21.04 1.01.02 1.5h-.02v.01c0 .02-.03.49-.09 1-.69-.2-.37-2.18-.37-2.2zm-.64.58c.05-.1.09-.24.12-.42.05.12.13.19.21.2.05.01.13-.01.22-.15-.03.28-.07.75-.03 1.17h-.01v.01s-.07.32-.16.8c-.27-.09-.41-.38-.42-.87-.02-.35.06-.71.07-.74zm-.66.34c.05-.1.09-.22.13-.36.05.11.15.22.27.22.04 0 .1-.01.16-.07-.02.13-.05.35-.06.58 0 .02-.03.58-.09 1-.6-.23-.42-1.33-.41-1.37zm-.38 1.4c-.23-.25-.17-.99-.17-1.02.01-.04.03-.07.04-.1.01.02.02.04.03.05.04.04.09.06.15.04.05-.01.14-.06.24-.22-.01.15-.02.4.02.64-.01.03-.06.34-.14.69-.06 0-.12-.03-.17-.08zm.01 2.06c.02-.17.03-.36.03-.51l.01-.08c.03-.48.18-1.31.19-1.35.05-.22.09-.43.12-.58.08.26.23.43.44.5-.02.17-.09.55-.16.91-.06.32-.11.65-.15.89-.09.53-.09.72-.06 1.33-.06 0-.12-.03-.17-.08-.26-.25-.25-1-.25-1.03z"/><path class="prefix__st2" d="M17.78 22.33c.02.79.37 1.64.62 1.99-.33.11-.56.46-.52.93-.26-.18-.21-.6-.16-.75-.25.14-.28.25-.33.39-.14-.29-.23-.62.19-1.17-.44.52-.84.51-.95.48.12-.08.29-.24.37-.43-.66.4-.96.16-.96.16.93-.19.82-.97 1.74-1.6zM24.11 25.25c.04-.47-.19-.82-.52-.93.25-.35.61-1.2.62-1.99.92.63.81 1.41 1.73 1.61 0 0-.3.24-.96-.16.07.19.25.35.37.43-.11.02-.51.04-.95-.48.43.54.34.87.19 1.17-.05-.14-.08-.26-.33-.39.06.14.11.56-.15.74zM18.6 28.66c-.03-.06-.01-.15.08-.33.31-.45.62-1.38.62-1.38s-.14.06-.22.07c-.01-.3.54-1.1.56-1.66l1.23.24.13.03.12-.03 1.23-.24c.03.56.57 1.36.56 1.66-.08-.01-.22-.07-.22-.07s.31.94.62 1.38c.09.17.11.26.08.33 0 0-.15.01-.35-.13.3.68.95 1.89 1.17 2.26 0 0-.29.39-.93-.67-.08-.13-.15-.26-.21-.38.3.78.53 1.09.55 1.29 0 0-.38.22-.98-1.03 0 0 .4.97.43 1.08.03.08-.39.31-.87-.8.08.35.34.89.3.95-.35.11-.65-.47-.86-1.1 0 0 .29.9.33 1.18-.22.05-.55-.21-.55-.4 0 0-.03.68-.43.83-.4-.15-.43-.83-.43-.83 0 .2-.33.46-.55.4.04-.28.33-1.18.33-1.18-.21.63-.51 1.21-.86 1.1-.04-.07.22-.6.3-.95-.48 1.1-.9.88-.87.8.04-.11.43-1.08.43-1.08-.6 1.25-.98 1.03-.98 1.03.02-.2.25-.52.55-1.29-.06.12-.13.24-.21.38-.64 1.06-.93.67-.93.67.21-.37.87-1.57 1.17-2.26-.19.14-.34.13-.34.13z"/><path class="prefix__st3" d="M13.88 27c.01-.12.18-.17.34-.21.16-.04.21-.1.51-.23-.15-.11-.31-.06-.43-.05-.11.01-.24 0-.24-.12 0-.03.01-.12.01-.13 0 0-.25-.12-.42.09.04-.37.21-.54.52-.32.06-.07.13-.11.2-.11.17 0 .23.15.67.14.24-.01.25-.07.38-.17.01-.01.02-.01.03-.02l.15-.11c.27-.37 1.35-1.59 1.35-1.59.17-.05.4-.18.64-.46-.37.47-.35.77-.25 1.04 0 0-.68.68-1.29 1.25.33-.06.4.08.44.16.37.04.44.29.28.58-.03-.21-.16-.28-.29-.29-.1.26-.26.26-.54.26s-.29-.15-.46-.03c-.25.13-.33.59-.42.94-.03.29-.22.33-.35.28-.08.21-.05.32.1.42-.42.13-.42-.41-.4-.54-.12-.11-.06-.24.07-.46-.28.07-.43.04-.5-.05-.28.02-.19.15-.19.32-.31-.32-.02-.51.09-.59zM28.12 27c-.01-.12-.18-.17-.34-.21-.16-.04-.21-.1-.51-.23.15-.11.31-.06.43-.05.11.01.24 0 .24-.12 0-.03-.01-.12-.01-.13 0 0 .25-.12.42.09-.04-.37-.21-.54-.52-.32-.06-.07-.13-.11-.2-.11-.17 0-.23.15-.67.14-.24-.01-.25-.07-.38-.17-.01-.01-.02-.01-.03-.02l-.15-.11c-.27-.37-1.35-1.59-1.35-1.59-.17-.05-.4-.18-.64-.46.37.47.35.77.25 1.04 0 0 .68.68 1.29 1.25-.33-.06-.4.08-.44.16-.37.04-.44.29-.28.58.03-.21.16-.28.29-.29.1.26.26.26.54.26s.29-.15.46-.03c.25.13.33.59.42.94.03.29.22.33.35.28.08.21.05.32-.1.42.42.13.42-.41.4-.54.12-.11.06-.24-.07-.46.28.07.43.04.5-.05.28.02.19.15.19.32.31-.32.02-.51-.09-.59z"/><path class="prefix__st4" d="M28.16 26.99c-.03-.15-.23-.19-.37-.22a.818.818 0 01-.24-.1c-.05-.03-.12-.06-.2-.1.05-.02.1-.03.16-.03.04 0 .09.01.13.01.02 0 .04.01.06.01h.06c.06 0 .11-.01.14-.03.05-.03.07-.07.07-.13 0-.02 0-.07-.01-.11.03-.01.07-.02.13-.02.09 0 .17.04.23.11l.08.09-.01-.12c-.04-.37-.2-.45-.31-.45-.07 0-.15.03-.24.09a.264.264 0 00-.21-.1c-.07 0-.13.02-.19.05-.1.04-.22.1-.49.09-.18-.01-.22-.04-.29-.1-.05-.04-.11-.09-.22-.15-.2-.28-1.05-1.24-1.3-1.54.05.01.09.01.12.01.04 0 .07 0 .1-.01l.08-.02-.07-.05c-.1-.07-.22-.18-.3-.31.22.12.42.18.6.18.2 0 .3-.08.3-.08l.06-.05-.07-.02c-.5-.11-.68-.38-.91-.73-.16-.25-.35-.52-.68-.78-.02-.01-.04-.03-.06-.04-.02-.02-.05-.03-.07-.05l-.05-.04v.07c-.02.78-.38 1.64-.62 1.97l-.03.04.05.02h.01c.02.01.04.01.06.02.3.13.46.46.43.86l-.01.08.06-.04c.24-.16.23-.51.19-.7.16.1.19.2.23.31l.04.1.04-.08c.01-.03.03-.05.04-.08.14.14.67.67 1.17 1.13h-.04c-.21 0-.28.11-.31.18-.17.02-.28.09-.34.19-.06.11-.04.26.05.44l.05.1.01-.11c.02-.15.09-.23.24-.26.11.25.29.25.56.25.13 0 .2-.03.26-.05.07-.03.11-.04.19.02.21.11.29.46.37.77.01.05.02.1.04.15.02.24.16.32.29.32.03 0 .05 0 .08-.01.06.17.03.26-.1.34l-.06.04.07.02c.05.01.09.02.13.02.08 0 .15-.03.21-.09.12-.14.12-.39.11-.5.11-.11.06-.25-.04-.42.21.04.36.02.44-.07.07.01.11.02.13.05.02.03.02.07.01.13 0 .03-.01.07-.01.11v.09l.06-.06c.1-.1.14-.2.13-.3-.01-.15-.15-.26-.22-.31zm.11.47c.01-.07.01-.13-.03-.17-.03-.04-.09-.06-.17-.07-.01-.04-.02-.1-.03-.16.03 0 .06-.01.07-.01.07.05.19.14.2.26.01.04 0 .1-.04.15zm-.31-.43c.02.07.04.17.04.21-.07.08-.22.09-.44.03-.05-.05-.28-.34-.43-.48l-.05.05c.16.14.41.45.43.48.13.22.16.32.09.4-.02-.01-.05-.05-.09-.12l-.07.02c.01.11-.11.21-.16.24-.03.01-.05.02-.08.02-.12 0-.2-.1-.22-.26-.01-.05-.03-.1-.04-.15-.08-.32-.17-.69-.4-.81a.218.218 0 00-.25-.02c-.05.02-.12.05-.23.05-.27 0-.41 0-.5-.23 0-.12.08-.29.08-.29l.03-.07-.09.02c.03-.05.09-.09.22-.09.04 0 .08.01.13.01l.37.34.05-.05-.29-.26-.09-.08c-.56-.51-1.17-1.12-1.28-1.23.01-.02.01-.03.02-.05 0-.01 0-.01.01-.02 0-.01.01-.02.01-.03 0-.01 0-.02.01-.03.25.27 1.38 1.44 1.63 1.59l.01.01h.01c.13-.03.19-.06.22-.13.14.13.48.39.6.48.02.02.03.03.04.03l.01.01c.12.05.2.1.26.13.09.05.16.08.26.1.14.03.28.07.3.15-.02 0-.04.01-.08 0l-.05-.01.01.04zm-.67 1.27c.1-.1.12-.21.06-.39.04-.03.12-.1.16-.19.03.04.05.06.07.08.01.09.01.32-.1.44-.05.05-.11.07-.19.06zm-2.08-1.94c.04-.09.15-.14.3-.16h.03c-.02.06-.05.15-.05.23-.14.03-.23.1-.27.22-.04-.13-.04-.22-.01-.29zm-.56-1.7l-.03.09v.01c-.01.01-.01.03-.02.04-.04-.11-.11-.21-.32-.33l-.08-.04.02.08c.04.13.09.47-.09.66.01-.38-.17-.7-.46-.84-.01-.01-.03-.01-.05-.02.02-.04.05-.08.07-.12v-.01c.23-.4.49-1.1.52-1.78.02.01.04.03.06.04.02.01.04.03.06.05.3.24.47.5.62.73.22.32.41.61.86.73-.04.01-.1.02-.17.02-.19 0-.42-.08-.67-.23l-.09-.05.04.1c.06.15.18.29.3.39-.05 0-.12-.01-.21-.03a.145.145 0 00-.07-.02c-.01 0-.02-.01-.03-.01-.01-.01-.02-.01-.04-.02-.01-.01-.02-.01-.04-.02 0 0-.01 0-.01-.01-.03-.02-.07-.04-.1-.06l-.01-.01c-.02-.01-.03-.02-.05-.04l-.02-.02c-.02-.01-.03-.02-.05-.04-.01-.01-.02-.02-.03-.02-.01-.01-.03-.02-.04-.04l-.04-.04-.03-.03c-.02-.03-.05-.05-.07-.08l-.05.05c.02.03.05.06.06.09.01.02.03.04.04.05.01.01.01.02.02.03.01.02.03.04.04.06 0 .01.01.01.01.02l.03.06c0 .01.01.01.01.02.01.02.02.04.02.06 0 .01.01.01.01.02.01.02.01.03.02.05 0 .01.01.02.01.02 0 .01.01.03.01.04 0 .01.01.02.01.03 0 .01 0 .02.01.03 0 .01 0 .02.01.03v.21c0 .01 0 .02-.01.03v.02c.03.02.03.03.02.05 0-.01 0-.01 0 0zm1.89 1.25c.03.16.01.19-.16.23-.03-.02-.08-.06-.14-.11.05-.01.1-.04.14-.09a.3.3 0 00.04-.1c.05.02.09.05.12.07zm-1.91-1.92c.03.03.07.05.1.07l.09.06s.01 0 .01.01c.01.01.03.01.04.02.01.01.03.01.04.02.01 0 .01.01.02.01a.19.19 0 01-.05.1c-.04.04-.11.04-.14.04a1.07 1.07 0 00-.11-.33zm.12.39c.05 0 .12-.01.17-.05.04-.03.06-.07.07-.13.01 0 .01.01.02.01h.01c.02.02.06.07.13.15.01.07-.01.12-.05.17-.07.09-.21.11-.26.12l-.1-.1c.02-.07.02-.12.01-.17zm.41.18a.35.35 0 00.06-.14c.05.05.1.11.15.17-.01.09-.04.17-.1.21-.07.06-.16.07-.19.07l-.18-.18c.08-.01.19-.04.26-.13zm.16.31a.36.36 0 00.11-.2c.06.07.12.13.18.2-.07.21-.25.24-.3.24-.06-.06-.11-.12-.16-.17.05 0 .12-.02.17-.07zm.34.07c.04.04.07.08.11.12 0 .08-.02.14-.06.18-.07.07-.17.08-.2.08-.05-.05-.1-.1-.14-.15.09-.01.22-.07.29-.23zm.11.35c.04-.04.06-.09.07-.16l.15.18a.28.28 0 01-.24.25l-.18-.18c.06 0 .14-.03.2-.09zm.28.1c.05.06.09.11.14.16-.01.09-.04.16-.08.19a.15.15 0 01-.14.02l-.15-.15c.09-.02.2-.08.23-.22zm.1.41c.05-.04.09-.1.1-.18.04.05.07.09.1.12.01.06.01.1-.02.14-.04.06-.12.07-.15.07-.04-.04-.09-.08-.13-.12.03.01.06 0 .1-.03zm1.32.19c.06-.02.1-.04.16-.04s.12.03.17.1c.08.16.1.22.1.23 0 .01.01.09.01.12s-.01.05-.04.06c-.02.01-.06.02-.11.02h-.06c-.02 0-.04 0-.06-.01-.04-.01-.09-.01-.13-.01-.09 0-.17.02-.23.06-.1-.07-.54-.41-.65-.52v-.03c.07.06.13.11.33.12H27c.25 0 .38-.06.47-.1zm.6-.02c.13 0 .2.14.23.29a.36.36 0 00-.2-.06c-.06 0-.11.01-.14.02a.494.494 0 00-.08-.18c.07-.05.14-.07.19-.07zM24.24 30.77c-.17-.29-.61-1.09-.94-1.76-.07-.14-.13-.26-.18-.38.13.07.24.07.27.07h.03l.01-.02c.03-.08.01-.19-.08-.36-.26-.37-.51-1.07-.59-1.3.05.02.1.03.16.04l.04.01v-.04c0-.14-.1-.37-.22-.64-.15-.33-.32-.7-.34-1.01V25.32l-.16.07-.03.01-.26.11c-.09.04-.21.05-.33.05h-.5v.01l-.12.02-.09-.02v-.01h-.49c-.13-.01-.24-.02-.34-.05l-.26-.11-.04-.02s-.01 0-.01-.01l-.15-.06V25.37c-.02.3-.19.68-.34 1.01-.12.27-.23.5-.22.64v.04l.04-.01c.05-.01.11-.02.16-.04-.08.23-.34.93-.59 1.3-.09.17-.12.28-.08.36l.01.02h.03c.03 0 .13-.01.27-.08-.05.12-.12.25-.18.38-.33.67-.77 1.48-.94 1.76l-.01.02.01.02s.06.09.19.09h.01c.2-.01.43-.21.7-.61-.05.12-.1.22-.14.3-.1.2-.16.34-.18.45v.02l.02.01s.04.02.09.02c.03 0 .08-.01.13-.02.14-.05.31-.19.52-.51-.1.24-.19.47-.21.52-.01.02 0 .05.02.07.02.03.07.05.13.05.02 0 .05 0 .08-.01.12-.03.3-.14.5-.48-.02.04-.03.08-.05.12-.1.28-.14.39-.12.43l.01.01.01.01c.03.01.07.02.1.02.06 0 .12-.02.18-.05.13-.08.25-.24.36-.45-.06.21-.11.42-.13.53l-.01.03.03.01c.02.01.05.01.07.01.1 0 .22-.05.32-.13.06-.05.11-.1.14-.16.03.22.14.59.43.71H21c.3-.11.4-.49.43-.71.03.05.08.11.14.16.11.08.22.13.32.13.02 0 .05 0 .07-.01l.03-.01-.01-.03c-.02-.11-.07-.32-.13-.53.11.2.23.37.36.45.06.03.12.05.18.05.03 0 .07-.01.1-.02l.01-.01.01-.01c.02-.04-.01-.15-.12-.43-.02-.04-.03-.08-.05-.13.2.34.38.45.5.48.03.01.05.01.08.01.06 0 .11-.02.13-.05.02-.02.03-.05.02-.07-.02-.05-.11-.29-.21-.52.21.32.39.46.52.51.05.02.09.02.13.02.06 0 .09-.02.09-.02l.02-.01v-.02c-.01-.11-.08-.24-.18-.45-.04-.09-.09-.19-.14-.3.26.4.5.6.7.61h.01c.13 0 .19-.08.19-.09l.01-.02.03.01zm-.92-.67c-.29-.49-.44-.86-.52-1.09-.03-.08-.04-.14-.06-.19.05.01.09.02.12.02s.05 0 .06-.01l.04-.01-.01-.04c-.03-.12-.09-.29-.16-.44.08.09.15.16.23.21.06.13.13.29.21.45.32.66.76 1.47.94 1.77-.02.02-.06.04-.13.04-.13 0-.37-.13-.72-.71zm.13.89c-.21-.08-.63-.45-1.17-1.99-.01-.02-.02-.05-.03-.07.03.01.05.01.07.01.03 0 .06-.01.07-.03.04-.04.02-.11 0-.17-.04-.08-.08-.18-.11-.28.13.18.27.27.37.32.01.04.03.12.06.21.06.17.15.42.32.75.15.39.28.66.38.86.09.18.15.3.17.4-.02.02-.06.02-.13-.01zm-.49.14c-.1 0-.63-.11-1.13-2.12 0-.01-.01-.02-.01-.03h.06l.01-.03c.02-.12-.04-.29-.11-.46-.01-.02-.01-.04-.02-.06.18.31.36.45.41.48l.03.1c.15.42.28.75.41 1.02.03.08.4.97.43 1.07.01 0-.02.03-.08.03zm-.68.05c-.45-.27-.79-1.64-.9-2.17-.02-.11-.04-.18-.04-.2.02-.06.03-.11.04-.16.12.22.28.29.38.31 0 .02.01.03.01.04.14.57.28.99.42 1.3.04.17.11.37.18.55.05.14.11.3.12.36-.08.02-.14.01-.21-.03zm-.82-.26c0-.37-.28-1.59-.33-1.78.05-.04.08-.08.11-.14.02-.02.03-.05.04-.07.01.02.01.05.02.07.05.26.16.72.32 1.17.04.14.26.84.31 1.12-.09.01-.2-.03-.3-.11-.1-.08-.17-.18-.17-.26zm-.46.8c-.36-.15-.39-.78-.39-.79 0-.35.26-1.49.32-1.74.01.01.02.01.04.02v1.46h.07v-1.46c.01-.01.03-.01.04-.02.06.25.32 1.39.32 1.74-.01 0-.04.64-.4.79zm-.63-.53c-.1.08-.21.12-.3.11.05-.28.27-.99.31-1.12.15-.45.26-.91.32-1.17.01-.03.01-.05.01-.07.01.03.02.05.04.07.03.05.07.1.11.14-.04.19-.33 1.41-.33 1.78.01.07-.06.17-.16.26zm-.65-.01c-.07.04-.13.05-.2.04.01-.05.07-.22.12-.36.07-.18.14-.38.18-.55.14-.31.28-.74.42-1.3 0-.01.01-.03.01-.04.1-.02.25-.1.38-.31.01.04.02.1.04.16 0 .02-.02.1-.04.2-.12.52-.46 1.89-.91 2.16zm-.68-.05c-.06 0-.08-.02-.09-.03.03-.1.4-.99.43-1.07.13-.27.27-.6.41-1.02.01-.03.02-.07.04-.1.06-.04.23-.18.41-.48-.01.02-.01.04-.02.06-.06.17-.12.34-.1.46v.03H20.18c0 .01-.01.02-.01.03-.51 2.01-1.03 2.12-1.13 2.12zm-.49-.14c-.07.03-.12.03-.14.02.02-.09.08-.22.17-.4.1-.2.23-.47.38-.86.17-.33.26-.58.32-.75.03-.1.05-.17.06-.21a.93.93 0 00.37-.32c-.03.09-.07.2-.11.27-.02.06-.04.13 0 .17.02.02.04.03.07.03.02 0 .05 0 .07-.01-.01.02-.02.05-.03.07-.53 1.54-.95 1.91-1.16 1.99zm-.59-.17c-.06 0-.11-.02-.13-.04.18-.31.62-1.12.94-1.77.08-.16.15-.31.21-.45.07-.05.15-.12.23-.21-.06.15-.13.32-.16.44l-.01.04.04.01c.01 0 .03.01.06.01s.07 0 .12-.02c-.01.05-.03.11-.06.19-.08.23-.23.6-.52 1.1-.35.56-.58.69-.72.7zm1.38-4.41c.15-.32.31-.68.34-.99l.35.15c-.03.19-.25 1.28-.9 1.41.01-.14.11-.35.21-.57zm1.62-.74h.07v-.01l.05-.01v.02c.01.14.04.47.12.79 0 .06 0 .5-.21.73-.22-.24-.21-.7-.21-.74.08-.32.11-.65.12-.78v-.02l.05.01v.01zm1.92 1.31c-.66-.13-.87-1.23-.9-1.41l.35-.15c.03.31.19.67.34.99.09.22.19.43.21.57zm.49 1.65c-.13-.01-.73-.15-1.07-1.53.04.01.07.01.09.01h.06v-.03c.01-.1-.04-.21-.09-.32l-.03-.06c.09.12.2.21.32.28.04.12.33.96.62 1.38.1.15.11.22.1.27zm-3.27-1.46c.01.01.03.02.04.03-.28 1.28-.75 1.59-1.01 1.57.07-.25.27-.68.31-.76.12-.23.24-.53.34-.94a.8.8 0 00.38-.3c-.01.06-.03.1-.04.13a.26.26 0 00-.03.11v.03c-.01.05-.02.1.01.13zm.11.03c.18-.02.31-.14.41-.32-.16 1.51-.83 1.96-.84 1.97-.11.03-.13.02-.13.02s-.01-.01.02-.09c.09-.18.18-.48.19-.53.12-.25.25-.58.35-1.05zm.17.94c.15-.34.28-.81.33-1.45.01-.01.01-.02.01-.03.01.14.05.32.14.47-.01.1-.05.28-.09.48-.06.28-.14.63-.16.91-.15.33-.36.37-.44.38 0-.1.05-.25.1-.39.06-.14.11-.27.11-.37zm.47-.51c.03-.16.07-.3.08-.41.01.01.02.03.04.04v1.15h.07v-1.15c.01-.01.02-.03.04-.04.02.11.05.25.08.41.06.28.14.62.16.9 0 .02-.03.3-.15.48-.04.06-.1.11-.16.13a.293.293 0 01-.16-.13c-.12-.18-.15-.45-.15-.48.01-.28.08-.62.15-.9zm.38-.02c-.04-.2-.08-.38-.09-.48.09-.15.13-.33.14-.47 0 .01.01.02.01.03.05.64.18 1.1.33 1.44 0 .1.05.23.1.37.05.14.11.29.1.39-.08 0-.29-.05-.44-.38-.02-.27-.09-.62-.15-.9zm.15-.72c.1.18.23.3.41.32.1.47.23.8.36 1.04.01.06.1.35.19.54.03.07.02.09.02.09s-.02.02-.14-.02c-.01-.01-.68-.47-.84-1.97zm.48.31c.02-.01.03-.02.04-.03.03-.03.02-.08.02-.13v-.03c0-.04-.02-.07-.03-.11-.01-.03-.03-.08-.04-.13a.8.8 0 00.38.3c.09.4.21.71.33.94.04.08.24.5.31.76-.26.01-.73-.3-1.01-1.57zm-.33-1.56c.14-.01.27-.01.38-.05.02.13.1.53.29.88.02.12.07.22.11.32.04.09.08.17.08.25-.13-.02-.68-.13-.86-1.4zm-.07 0c.06.45.17.76.29.98.02.15.05.24.07.31.01.04.02.07.03.1v.03c0 .03.01.06 0 .07 0 0-.01.01-.03.01-.52-.01-.63-1.18-.65-1.47v-.03h.29zm-.92 0h.3v.03c-.02.29-.13 1.46-.66 1.47-.02 0-.03-.01-.03-.01-.01-.01 0-.04 0-.07v-.03c0-.03.01-.06.03-.1.02-.07.06-.16.07-.31.12-.22.23-.53.29-.98zm-.07 0c-.18 1.28-.73 1.39-.86 1.39 0-.07.04-.16.08-.25.05-.09.09-.2.11-.32.19-.35.27-.75.29-.88.11.04.24.05.38.06zm-1.14 1.34c.13-.07.23-.16.32-.28l-.03.06c-.05.11-.1.21-.09.32v.03h.06c.02 0 .06 0 .1-.01-.34 1.39-.94 1.52-1.07 1.53-.01-.04 0-.12.09-.27.3-.43.58-1.26.62-1.38zM18.44 24.3c-.24-.33-.6-1.19-.62-1.97v-.07l-.05.04c-.02.02-.05.03-.07.05-.02.01-.04.03-.06.04-.33.26-.51.53-.68.78-.23.35-.42.62-.91.73l-.07.02.06.05s.1.08.3.08c.18 0 .38-.06.6-.18-.08.13-.2.24-.3.31l-.07.05.08.02c.03.01.06.01.1.01.03 0 .07 0 .12-.01-.26.29-1.11 1.26-1.3 1.54-.12.06-.17.11-.22.15-.07.06-.11.1-.29.1h-.04c-.24 0-.36-.05-.45-.09a.414.414 0 00-.19-.05c-.07 0-.15.04-.21.1a.449.449 0 00-.24-.09c-.12 0-.27.08-.31.45l-.01.12.08-.09c.06-.07.13-.11.23-.11.05 0 .1.01.13.02 0 .03-.01.09-.01.11 0 .07.04.15.22.15h.06c.02 0 .04 0 .06-.01.04-.01.08-.01.13-.01.06 0 .11.01.16.03-.09.04-.15.07-.2.1-.09.05-.15.08-.24.1-.14.03-.34.08-.37.22h-.01c-.08.06-.22.16-.23.31-.01.1.04.2.13.3l.06.06v-.09c0-.04 0-.07-.01-.11-.01-.06-.01-.11.01-.13.02-.02.06-.04.13-.05.08.09.23.11.44.07-.1.17-.15.31-.04.42-.01.11-.01.36.11.5.05.06.12.09.21.09.04 0 .09-.01.13-.02l.07-.02-.06-.04c-.13-.08-.16-.18-.1-.34.03.01.05.01.08.01.13 0 .27-.09.29-.33.01-.04.02-.09.04-.14.08-.31.17-.66.37-.77.09-.06.12-.05.19-.02.06.02.13.05.26.05.27 0 .45 0 .56-.25.14.03.22.11.24.26l.01.11.05-.1c.09-.17.11-.32.05-.44-.05-.1-.17-.17-.34-.19-.03-.07-.1-.18-.31-.18h-.04c.5-.47 1.03-.99 1.17-1.13.01.03.02.06.04.08l.04.08.04-.1c.04-.11.07-.21.23-.31-.03.19-.04.54.2.7l.06.04-.01-.08c-.04-.4.13-.73.43-.86.02-.01.04-.02.06-.02h.01l.05-.02-.03-.03zm-.16-.11c.02.04.05.08.07.11-.02.01-.03.01-.04.02-.29.14-.47.46-.46.84-.17-.19-.12-.53-.09-.66l.02-.08-.08.04c-.21.12-.27.22-.32.33-.01-.02-.01-.03-.02-.05l-.03-.09c0-.01-.01-.02-.01-.04v-.02c0-.01 0-.02-.01-.03v-.03-.03-.03-.03-.03-.03-.03-.03c0-.01 0-.02.01-.03 0-.01 0-.03.01-.04 0-.01 0-.02.01-.02 0-.01.01-.03.01-.04 0-.01 0-.01.01-.02.01-.02.01-.03.02-.05 0-.01.01-.01.01-.02l.03-.06c0-.01 0-.01.01-.01l.03-.06c0-.01.01-.01.01-.02a.21.21 0 01.04-.06c.01-.01.01-.02.02-.03.01-.02.02-.03.04-.05a.55.55 0 01.07-.09l-.06-.05c-.02.03-.05.05-.07.08l-.07.07-.04.04c-.01.01-.02.01-.02.02-.02.01-.03.03-.05.04-.01 0-.01.01-.02.01-.02.01-.03.03-.05.04l-.01.01c-.04.03-.07.05-.11.07-.01.01-.03.01-.04.02-.01.01-.02.01-.04.02-.01.01-.02.01-.03.01-.02.01-.04.02-.07.02-.09.03-.16.03-.21.03.12-.1.25-.24.3-.39l.04-.1-.09.08c-.25.15-.47.23-.67.23-.07 0-.13-.01-.17-.02.45-.13.64-.41.86-.73.15-.23.33-.49.62-.73.02-.02.04-.03.06-.04.02-.01.04-.03.06-.04.02.67.29 1.38.52 1.78zm-2.59 2.19l.37-.34c.05-.01.09-.01.13-.01.12 0 .18.04.22.09l-.09-.02.03.07s.07.16.08.29c-.09.23-.23.23-.5.23-.11 0-.18-.03-.23-.05-.08-.03-.15-.05-.25.03-.23.12-.32.49-.4.81-.01.05-.02.1-.04.15-.02.17-.1.27-.22.27-.03 0-.06-.01-.08-.02-.02-.02-.17-.12-.16-.24l-.07-.02c-.04.07-.07.11-.09.12-.06-.08-.04-.17.1-.4.02-.02.27-.33.43-.48l-.05-.05c-.16.14-.39.42-.43.48-.22.05-.37.04-.44-.03.01-.04.02-.13.04-.21l.01-.05-.05-.02c-.04 0-.06 0-.08-.01.03-.08.17-.12.3-.15.1-.02.16-.06.25-.1.06-.03.14-.08.26-.13l.06-.03-.01-.01c.12-.09.46-.35.6-.48.03.06.1.1.22.13h.01l.01-.01c.24-.14 1.37-1.32 1.63-1.59.01.03.02.06.02.09 0 .01.01.02.01.04-.11.11-.72.72-1.28 1.23l-.09.08-.29.26.07.08zm1.09.25c-.04-.12-.13-.19-.27-.22-.01-.08-.03-.17-.05-.23h.03c.16.02.26.07.3.16.03.09.03.18-.01.29zm-2.07 1.67a.212.212 0 01-.19-.06c-.1-.12-.1-.35-.09-.44.02-.01.04-.03.07-.08.04.09.12.16.16.19-.07.17-.06.29.05.39zm-.78-1.08c-.08.01-.14.03-.17.07-.04.05-.04.11-.03.17a.332.332 0 01-.05-.16c.01-.12.13-.21.2-.26.02.01.04.01.07.01 0 .07-.01.13-.02.17zm.43-.75c-.02 0-.04.01-.06.01h-.06c-.15 0-.15-.06-.15-.08 0-.03.01-.11.01-.12 0-.01.02-.07.1-.22.05-.06.11-.1.17-.1.06 0 .1.02.16.04.1.04.23.1.52.1.2-.01.26-.05.33-.12v.03c-.1.11-.55.45-.65.52a.438.438 0 00-.23-.06.327.327 0 00-.14 0zm-.32-.25a.464.464 0 00-.14-.02.36.36 0 00-.2.06c.03-.15.09-.29.23-.29.06 0 .12.02.19.07a.75.75 0 00-.08.18zm1.54-.38c0 .04.02.07.04.1.04.05.1.08.14.09-.06.05-.11.09-.14.11-.17-.04-.19-.07-.16-.23.03-.02.07-.05.12-.07zm.32-.1c-.05-.03-.08-.1-.08-.19.04-.05.09-.11.14-.16.04.14.14.2.24.23l-.15.15c-.04 0-.1.01-.15-.03zm.06.1c-.05.05-.09.09-.13.12-.03 0-.11-.02-.15-.07-.03-.03-.03-.08-.02-.14.03-.04.06-.08.1-.12.02.08.05.14.1.18.03.02.06.03.1.03zm.05-.52l.15-.18c.01.06.03.11.07.16.06.06.13.09.18.1l-.18.18c-.04-.03-.21-.07-.22-.26zm.28-.08c-.04-.04-.06-.11-.06-.18.03-.04.07-.08.11-.12.07.17.2.22.29.24-.05.05-.1.1-.14.15-.03-.01-.14-.02-.2-.09zm.1-.36c.06-.07.12-.14.18-.2.02.08.06.15.11.2.06.05.12.07.17.08-.05.05-.11.11-.16.17-.05-.02-.23-.04-.3-.25zm.33-.06a.3.3 0 01-.1-.21c.06-.06.11-.12.15-.17.01.05.03.1.06.14.07.08.18.12.25.13-.05.05-.11.12-.18.18-.02-.01-.11-.01-.18-.07zm.18-.3c-.04-.05-.05-.1-.05-.17.07-.07.11-.13.13-.15h.01c.01 0 .01-.01.02-.01.01.05.03.1.07.13.05.04.12.05.17.05h.01c-.01.06 0 .11 0 .16l-.1.1c-.05 0-.19-.02-.26-.11zm.22-.25c-.03-.02-.04-.05-.05-.1.01 0 .02-.01.03-.01.02-.01.03-.02.05-.02l.06-.03c.01-.01.02-.01.04-.02s.04-.03.06-.04c.01-.01.03-.02.04-.03.01-.01.02-.01.03-.02-.06.12-.1.22-.11.32-.05-.01-.11-.02-.15-.05z"/><path class="prefix__st3" d="M16.73 27.06c-.21.31-.5.79-.5 1.07 0 .24.28.62.38 1.09h-.09c-.1-.52-.53-1.18-.92-1.06-.46.14-.42.64-.25.94.09-.16.2-.35.46-.34.24.01.36.22.45.46-.07 0-.12.05-.12.11s.06.11.12.11h.05c.02.16-.01.33-.11.36-.13.04-.2-.04-.28-.17-.05.13-.1.5.17.57.26.07.43-.22.43-.76h.1v.11c0 .3-.15.5-.16.62 0 .13.13.27.23.35.1-.08.24-.22.23-.35 0-.12-.16-.32-.16-.62v-.11h.09c.01.54.17.83.43.76.28-.07.22-.44.17-.57-.08.13-.15.21-.28.17-.1-.03-.12-.19-.11-.36h.06c.07 0 .12-.05.12-.11s-.06-.11-.12-.11h-.01c.08-.23.21-.45.45-.46.26-.01.37.18.46.34.17-.3.21-.8-.24-.94-.39-.12-.82.54-.92 1.06h-.08c.1-.47.38-.85.38-1.09.08-.28-.21-.76-.43-1.07z"/><path class="prefix__st4" d="M18.23 28.52a.49.49 0 00-.24-.33c-.04-.02-.08-.04-.13-.06-.01 0-.02-.01-.04-.01-.18-.04-.37.08-.53.26-.14.17-.27.4-.34.62-.01.01-.01.03-.01.04-.01.05-.03.09-.04.14h-.01c.02-.06.03-.13.06-.18.05-.14.11-.28.16-.4.08-.19.16-.35.16-.47 0-.13-.05-.29-.13-.45-.1-.22-.25-.46-.38-.64l-.03-.04-.03.04c-.12.18-.27.41-.38.64-.08.16-.13.32-.13.45v.01c0 .13.07.29.16.47.06.12.12.26.16.4l.06.18h-.02a.737.737 0 00-.04-.14c0-.01-.01-.03-.01-.04-.07-.22-.2-.45-.34-.62-.16-.18-.35-.3-.53-.26-.01 0-.02.01-.04.01-.05.02-.09.03-.13.06a.49.49 0 00-.24.33.72.72 0 00.03.41c.01.03.02.05.03.07l.06.12.03.05.03-.05v-.01c.02-.04.05-.08.07-.12.08-.11.18-.21.36-.2.11 0 .2.06.26.13.02.02.04.05.05.07.04.06.07.12.09.19-.02.01-.05.02-.06.04-.03.03-.05.06-.05.1 0 .04.02.08.05.1.03.03.07.04.11.04h.02c.01.07 0 .14-.02.2-.01.05-.04.08-.07.09-.05.02-.09.01-.13-.02-.04-.03-.07-.08-.11-.14l-.03-.06-.02.06c-.01.02-.01.03-.02.05-.02.08-.04.19-.02.3.02.11.07.21.2.26.01 0 .02.01.03.01.03.01.05.01.08.01.08 0 .16-.03.21-.1.06-.06.1-.15.13-.27.03-.11.05-.25.05-.4h.03v.08c0 .18-.06.32-.1.43-.03.07-.05.13-.06.19 0 .06.02.13.06.19.05.07.12.14.18.19l.02.02.02-.02c.06-.05.13-.12.18-.19.04-.06.06-.12.06-.18v-.01c0-.05-.03-.11-.06-.19-.04-.11-.1-.25-.1-.43v-.08h.03c0 .16.02.29.05.4.03.12.07.21.13.27.06.07.13.1.21.1.03 0 .05 0 .08-.01.01 0 .02-.01.03-.01.12-.05.18-.15.2-.26.02-.1 0-.22-.02-.3-.01-.02-.01-.04-.02-.05l-.02-.06-.03.06c-.04.06-.07.11-.11.14-.02.02-.05.03-.08.03-.02 0-.03 0-.05-.01-.03-.01-.05-.04-.07-.09-.02-.05-.02-.13-.02-.2h.03c.04 0 .08-.02.11-.04.03-.03.05-.06.05-.1 0-.04-.02-.08-.05-.1a.161.161 0 00-.07-.04c.03-.07.06-.13.09-.19.02-.03.03-.05.05-.07.06-.08.15-.13.26-.13h.02c.17 0 .27.09.34.2.03.04.05.08.07.12v.01l.03.05.03-.05.06-.12c.01-.02.02-.05.03-.08a.54.54 0 00.06-.41zm-1.74.55c.01.02.01.03.01.05l.03.11h.09l-.03-.11-.03-.11h.04c-.05-.16-.12-.3-.17-.43-.08-.18-.15-.33-.15-.45s.05-.27.12-.43c.1-.2.23-.42.35-.59.12.17.25.39.34.59.07.16.12.31.12.43 0 .11-.07.27-.15.45-.06.13-.12.27-.17.43h.04c-.01.03-.02.06-.03.08-.01.01-.01.03-.01.04-.01.03-.02.06-.02.09h.08l.03-.11c0-.02.01-.03.01-.05.01-.02.01-.04.02-.06h.03c.07-.21.19-.42.32-.58.14-.17.31-.27.46-.24.01 0 .02 0 .03.01.04.01.08.03.12.05.12.07.18.17.21.29.03.12.01.25-.02.37-.01.03-.02.06-.04.1-.01.01-.01.02-.02.03-.01-.01-.01-.02-.02-.03-.09-.14-.21-.28-.44-.27-.13.01-.23.07-.31.16-.03.03-.05.07-.08.11-.04.06-.07.13-.09.21l-.02.04h.06c.03 0 .05.01.07.02.02.01.03.03.03.05 0 .02-.01.04-.03.05-.02.02-.04.02-.07.02h-.1v.03c-.01.09-.01.18.02.26.02.07.06.12.12.14.07.02.13.01.18-.03.03-.02.06-.06.09-.1.02.07.02.16.01.25-.02.09-.06.17-.15.21-.01 0-.02.01-.03.01-.02.01-.04.01-.06.01-.06 0-.12-.03-.16-.08a.598.598 0 01-.12-.24c-.03-.11-.05-.26-.05-.42v-.03h-.15v.15c0 .19.06.34.1.46.03.07.05.12.05.17 0 .05-.02.1-.05.15-.04.06-.09.12-.14.16a.54.54 0 01-.14-.16.298.298 0 01-.05-.14v-.01c0-.04.02-.1.05-.17.05-.12.11-.27.11-.46v-.06-.09h-.16v.03c0 .16-.02.31-.05.42-.03.11-.07.19-.12.24-.05.05-.1.08-.16.08-.02 0-.04 0-.06-.01-.01 0-.02-.01-.03-.01a.253.253 0 01-.15-.21.692.692 0 01.01-.25c.03.04.06.07.09.1.05.04.11.05.18.03.06-.02.09-.07.11-.14.02-.07.02-.16.02-.26v-.03h-.08c-.03 0-.05-.01-.07-.02-.02-.01-.02-.03-.02-.05 0-.02.01-.04.02-.05.02-.01.04-.02.07-.02h.05l-.02-.05-.09-.21a.444.444 0 00-.08-.11.449.449 0 00-.31-.16c-.23-.01-.35.13-.44.27-.01.01-.01.02-.02.03-.01-.01-.01-.02-.02-.03-.01-.03-.03-.06-.04-.1a.668.668 0 01-.02-.37c.03-.12.09-.22.21-.29.03-.02.07-.04.12-.05.01 0 .02-.01.03-.01.02 0 .04-.01.06-.01.14 0 .28.1.41.24.13.16.25.37.32.58h.04c-.05.05-.04.07-.04.09z"/><path class="prefix__st3" d="M25.27 27.06c.21.31.5.79.5 1.07 0 .24-.28.62-.38 1.09h.09c.1-.52.53-1.18.92-1.06.46.14.42.64.25.94-.09-.16-.2-.35-.46-.34-.24.01-.36.22-.45.46.07 0 .12.05.12.11s-.06.11-.12.11h-.05c-.02.16.01.33.11.36.13.04.2-.04.28-.17.05.13.1.5-.17.57-.26.07-.43-.22-.43-.76h-.1v.11c0 .3.15.49.16.62 0 .13-.13.27-.23.35-.1-.08-.24-.22-.23-.35 0-.12.16-.32.16-.62v-.11h-.14c-.01.54-.17.83-.43.76-.28-.07-.22-.44-.17-.57.08.13.15.21.28.17.1-.03.12-.19.11-.36h-.06c-.07 0-.12-.05-.12-.11s.06-.11.12-.11h.01c-.08-.23-.21-.45-.45-.46-.26-.01-.37.18-.46.34-.17-.3-.21-.8.24-.94.39-.12.82.54.92 1.06h.08c-.1-.47-.38-.85-.38-1.09-.03-.28.27-.76.48-1.07z"/><path class="prefix__st4" d="M26.77 28.52a.49.49 0 00-.24-.33c-.04-.02-.08-.04-.13-.06-.01 0-.02-.01-.04-.01-.18-.04-.37.08-.53.26-.14.17-.27.4-.34.62-.01.01-.01.03-.01.04-.01.05-.03.1-.04.14h-.02c.02-.06.03-.13.06-.18.05-.14.11-.28.16-.4.08-.19.16-.35.16-.47 0-.13-.05-.29-.13-.45-.1-.22-.25-.46-.38-.64l-.02-.04-.03.04c-.12.18-.27.41-.38.64-.08.17-.13.33-.13.45 0 .13.07.29.16.47.06.12.12.26.16.4l.06.18h-.01a.737.737 0 00-.04-.14c0-.01-.01-.03-.01-.04-.07-.22-.2-.45-.34-.62-.16-.18-.34-.3-.53-.26-.01 0-.02.01-.04.01a.31.31 0 00-.13.06.49.49 0 00-.24.33c-.03.13-.02.28.02.41.01.03.02.05.03.08l.06.12.03.05.03-.05v-.01c.02-.04.05-.08.07-.11.08-.11.17-.2.34-.2h.02c.11 0 .2.06.26.13.02.02.03.05.05.07.03.06.06.12.09.19-.03.01-.05.02-.07.04-.03.03-.05.06-.05.1 0 .04.02.08.05.1.03.02.07.04.11.04h.03c.01.07 0 .14-.02.2-.01.05-.04.08-.07.09-.02.01-.03.01-.05.01-.03 0-.05-.01-.08-.02-.04-.03-.07-.08-.11-.14l-.04-.06-.02.06c-.01.01-.01.03-.02.05-.02.08-.03.19-.02.3.02.11.07.21.2.26.01 0 .02.01.03.01.03.01.05.01.08.01.08 0 .16-.03.21-.1.06-.06.1-.15.13-.27.03-.11.05-.25.05-.4h.03v.08c0 .18-.06.32-.1.43-.03.07-.05.13-.06.19v.01c0 .06.03.12.06.18.05.07.12.14.18.19l.02.02.02-.02c.06-.05.13-.11.18-.19.04-.06.07-.13.06-.19 0-.05-.03-.11-.05-.19-.04-.11-.1-.25-.1-.43v-.08h.03c0 .16.02.29.05.4.03.12.07.21.13.27.06.07.13.1.21.1.03 0 .05 0 .08-.01.01 0 .02-.01.03-.01.12-.05.18-.15.2-.26.02-.1 0-.22-.02-.3-.01-.02-.01-.04-.02-.05l-.02-.06-.03.06c-.04.06-.07.11-.11.14-.02.02-.05.02-.08.02-.02 0-.03 0-.05-.01-.03-.01-.06-.04-.07-.09-.02-.06-.02-.13-.02-.2h.02c.04 0 .08-.02.11-.04.03-.03.05-.06.05-.1 0-.04-.02-.08-.05-.1-.02-.02-.04-.03-.06-.03.03-.07.06-.13.09-.19.02-.03.03-.05.05-.07.07-.08.15-.13.26-.13.18-.01.28.09.36.2.03.04.05.08.07.12v.01l.03.05.03-.05.06-.12c.01-.02.02-.05.03-.08.08-.15.09-.29.06-.43zm-1.74.52c.01.02.01.03.01.05l.03.14h.08c-.01-.03-.01-.06-.02-.09-.01-.02-.01-.05-.02-.07-.01-.02-.01-.04-.02-.06h.03c-.05-.16-.12-.3-.17-.43-.08-.18-.15-.33-.15-.45s.05-.27.12-.43c.09-.2.23-.42.34-.59.12.17.25.39.35.59.07.16.12.31.12.42 0 .11-.07.27-.15.45-.06.13-.12.27-.17.43h.03c-.01.02-.01.04-.02.06-.01.02-.01.04-.02.07-.01.03-.02.06-.02.09h.09c.01-.04.02-.09.03-.14 0-.02.01-.03.01-.05 0-.01.01-.02.01-.04h.03c.07-.21.19-.42.32-.58.13-.15.27-.24.41-.24.02 0 .04 0 .06.01.01 0 .02 0 .03.01.04.01.08.03.12.05.12.07.18.17.21.29.03.12.01.25-.02.37-.01.03-.02.06-.04.1 0 .01-.01.02-.02.03-.01-.01-.01-.02-.02-.03-.09-.14-.21-.28-.44-.27-.13.01-.23.06-.31.16-.03.03-.06.07-.08.11-.04.06-.07.13-.09.21l-.02.05h.05c.03 0 .05.01.07.02.02.01.02.03.02.05 0 .02-.01.04-.02.05-.02.01-.04.02-.07.02h-.08v.03c-.01.09-.01.18.02.25.02.07.06.12.11.14.07.02.13.01.18-.03.03-.02.06-.06.09-.1.02.07.03.16.01.25-.02.09-.06.17-.15.21-.01 0-.02.01-.03.01-.02.01-.04.01-.06.01-.06 0-.12-.03-.16-.08a.598.598 0 01-.12-.24c-.03-.11-.05-.26-.05-.42v-.03h-.16v.15c0 .19.06.34.1.46.03.07.05.12.05.16v.01c0 .05-.02.1-.05.14-.04.06-.09.12-.14.16-.05-.04-.1-.1-.14-.16a.298.298 0 01-.05-.15c0-.04.02-.1.05-.16.05-.12.11-.27.11-.46v-.06-.09h-.16v.03c0 .16-.02.31-.05.42-.03.1-.07.19-.12.24-.05.05-.1.08-.16.08-.02 0-.04 0-.06-.01-.01 0-.02-.01-.03-.01a.253.253 0 01-.15-.21.518.518 0 01.01-.25c.03.04.06.07.09.1.03.02.07.04.11.04.02 0 .05 0 .07-.01.06-.02.09-.07.11-.14.02-.07.02-.16.02-.25v-.03h-.09c-.03 0-.05-.01-.07-.02-.02-.01-.02-.03-.02-.05 0-.02.01-.04.02-.05.02-.01.04-.02.07-.02h.06l-.02-.05-.09-.21a.444.444 0 00-.08-.11.449.449 0 00-.31-.16c-.23-.01-.35.13-.44.27-.01.01-.01.02-.02.03-.01-.01-.01-.02-.02-.03-.01-.03-.03-.06-.04-.1a.668.668 0 01-.02-.37c.03-.12.09-.22.21-.29.03-.02.07-.04.12-.05.01 0 .02-.01.03-.01.16-.03.32.07.46.24.13.16.25.37.32.58h.03c0 .02 0 .03.01.04z"/><path class="prefix__st5" d="M17.63 22.31v-5.17h6.74v5.17c0 .45-.09.89-.26 1.28a3.368 3.368 0 01-1.82 1.82c-.4.16-.83.26-1.28.26a3.368 3.368 0 01-3.11-2.08c-.18-.4-.27-.83-.27-1.28z"/><path d="M17.69 17.2v5.11a3.256 3.256 0 00.97 2.33c.31.31.67.55 1.07.72a3.293 3.293 0 002.52 0c.4-.17.77-.41 1.07-.72.31-.31.55-.67.72-1.07.16-.39.25-.82.25-1.26V17.2h-6.6z" fill="#d83943"/><path class="prefix__st5" d="M17.66 20.6h2.81v-3.46h1.07v3.46h2.84v1.07h-2.84v3.97h-.02l-.25.03c-.08.01-.17.01-.25.01-.09 0-.17 0-.25-.01l-.25-.03h-.02v-3.99h-2.84V20.6z"/><path class="prefix__st7" d="M20.5 20.65h-2.81v.95h2.84v3.98c.07.01.15.02.22.02.08.01.17.01.25.01.08 0 .17 0 .25-.01.08-.01.15-.01.22-.02V21.6h2.84v-.95h-2.84V17.2h-.95v3.46h-.02v-.01z"/><path class="prefix__st5" d="M19.92 19.88l.08-.07.01-.01v-.02l.01-1.66v-.02l-.01-.01-.08-.07-.02-.02-.02.01c-.13.07-.37.01-.59-.04-.14-.03-.27-.07-.37-.07h-.01c-.14 0-.27.05-.37.14-.1.08-.16.2-.16.31 0 .23.07.35.16.42s.2.08.29.08c.08 0 .14-.03.18-.07a.3.3 0 00.09-.19c0-.06-.01-.11-.04-.15a.304.304 0 00-.08-.08.202.202 0 00-.11-.03c-.03 0-.07.01-.1.02v-.01c.01-.01.02-.02.04-.03.04-.02.11-.04.18-.03.07 0 .15.04.21.11.05.06.09.14.09.24 0 .13-.06.2-.1.24-.03.03-.05.05-.05.08s.02.05.05.07c.04.04.1.11.1.24 0 .09-.04.18-.09.24-.06.07-.13.11-.21.11-.07 0-.13-.01-.18-.03-.02-.01-.03-.02-.04-.03v-.01c.03.01.07.02.1.02.04 0 .08-.01.11-.03.03-.02.06-.05.08-.08.03-.04.04-.09.04-.15a.3.3 0 00-.09-.19.267.267 0 00-.18-.07h-.02c-.08 0-.19.02-.27.09-.09.07-.15.18-.16.36v.04c0 .12.07.24.17.33.1.08.24.13.38.13.1 0 .24-.03.37-.07.22-.06.46-.12.59-.04l.02.01v-.01z"/><path class="prefix__st7" d="M19.94 19.77l-.05.05c-.15-.07-.39-.01-.62.05-.13.03-.26.07-.36.07-.13 0-.25-.04-.34-.12a.392.392 0 01-.15-.27v-.03c0-.16.06-.26.13-.31.07-.06.16-.07.23-.07h.02c.06 0 .1.03.14.06a.19.19 0 01.04.25l-.06.06c-.02.01-.05.02-.08.02-.04 0-.07-.01-.11-.03l-.03-.02-.02.03c-.01.02-.01.04-.01.05 0 .02.01.05.03.07.01.02.03.03.06.04.05.03.13.04.21.04.09 0 .19-.05.26-.13a.44.44 0 00.11-.28c0-.16-.07-.24-.12-.29l-.03-.03s.01-.02.03-.03c.05-.05.13-.13.12-.29 0-.11-.04-.21-.11-.28a.364.364 0 00-.26-.13c-.08 0-.16.01-.21.04-.02.01-.04.03-.06.04a.09.09 0 00-.03.07c0 .02 0 .03.01.05l.02.03.03-.02a.26.26 0 01.11-.03c.03 0 .06.01.08.02.02.01.04.03.06.06.02.03.03.07.03.11 0 .03-.02.09-.07.14-.03.03-.08.06-.14.06-.08 0-.17-.01-.25-.06-.08-.06-.13-.17-.13-.37 0-.09.06-.19.14-.26.09-.07.2-.12.33-.12h.01c.1 0 .22.03.36.07.23.06.47.12.62.05l.05.05.01 1.59z"/><path class="prefix__st5" d="M22.08 19.88l-.08-.07-.01-.01v-.02l-.01-1.66v-.02H22l.08-.07.02-.02.02.01c.13.07.37.01.59-.04.14-.03.27-.07.37-.07h.01c.14 0 .27.05.37.14.1.08.16.2.16.31 0 .23-.07.35-.16.42s-.2.08-.29.08c-.08 0-.14-.03-.18-.07a.3.3 0 01-.09-.19c0-.06.01-.11.04-.15.02-.03.05-.06.08-.08.03-.02.07-.03.11-.03.03 0 .07.01.1.02v-.01a.138.138 0 00-.04-.03.325.325 0 00-.18-.03c-.07 0-.15.04-.21.11a.37.37 0 00-.09.24c0 .13.06.2.1.24.03.03.05.05.05.08s-.02.05-.05.07c-.04.04-.1.11-.1.24 0 .09.04.18.09.24.06.07.13.11.21.11.07 0 .13-.01.18-.03.02-.01.03-.02.04-.03v-.01c-.03.01-.07.02-.1.02-.04 0-.08-.01-.11-.03a.304.304 0 01-.08-.08.241.241 0 01-.04-.15.3.3 0 01.09-.19c.04-.04.11-.07.18-.07h.02c.08 0 .19.02.27.09.09.07.15.18.16.36v.04c0 .12-.07.24-.17.33-.1.08-.24.13-.38.13-.1 0-.24-.03-.37-.07-.22-.06-.46-.12-.59-.04l-.01.01-.02-.02z"/><path class="prefix__st7" d="M22.06 19.77l.05.05c.15-.07.39-.01.62.05.13.03.26.07.36.07.13 0 .25-.04.34-.12.09-.07.14-.17.15-.27v-.03c0-.16-.06-.26-.13-.31a.345.345 0 00-.23-.07h-.02c-.06 0-.1.03-.14.06a.19.19 0 00-.04.25l.06.06c.02.01.05.02.08.02.04 0 .07-.01.11-.03l.03-.02.02.03a.108.108 0 01-.02.12c-.01.02-.03.03-.06.04-.05.03-.13.04-.21.04-.09 0-.19-.05-.26-.13a.44.44 0 01-.11-.28c0-.16.07-.24.12-.29l.03-.03s-.01-.02-.03-.03c-.05-.05-.13-.13-.12-.29 0-.11.04-.21.11-.28.07-.08.17-.13.26-.13.08 0 .16.01.21.04.02.01.04.03.06.04.02.02.03.04.03.07 0 .02 0 .03-.01.05l-.02.03-.03-.02a.26.26 0 00-.11-.03c-.03 0-.06.01-.08.02a.17.17 0 00-.06.06c-.02.03-.03.07-.03.11 0 .03.02.09.07.14.03.03.08.06.14.06.08 0 .17-.01.25-.06.08-.06.13-.17.13-.37 0-.09-.06-.19-.14-.26a.532.532 0 00-.33-.12h-.01c-.1 0-.22.03-.36.07-.23.06-.47.12-.62.05l-.05.05-.01 1.59z"/><path class="prefix__st5" d="M19.92 24.2l.08-.07.01-.01v-.02l.01-1.66v-.02l-.01-.01-.08-.07-.02-.02-.02.01c-.13.07-.37.01-.59-.04-.14-.03-.27-.07-.37-.07h-.01c-.14 0-.27.05-.37.14-.1.08-.16.2-.16.31 0 .23.07.35.16.42s.2.08.29.08c.08 0 .14-.03.18-.07a.3.3 0 00.09-.19c0-.06-.01-.11-.04-.15a.304.304 0 00-.08-.08.202.202 0 00-.11-.03c-.03 0-.07.01-.1.02v-.01c.01-.01.02-.02.04-.03.04-.02.11-.04.18-.03.07 0 .15.04.21.11.05.06.09.14.09.24 0 .13-.06.2-.1.24-.03.03-.05.05-.05.08s.02.05.05.07c.04.04.1.11.1.24 0 .09-.04.18-.09.24-.06.07-.13.11-.21.11-.07 0-.13-.01-.18-.03-.02-.01-.03-.02-.04-.03v-.01c.03.01.07.02.1.02.04 0 .08-.01.11-.03.03-.02.06-.05.08-.08.03-.04.04-.09.04-.15a.3.3 0 00-.09-.19.267.267 0 00-.18-.07h-.02c-.08 0-.19.02-.27.09-.09.07-.15.18-.16.36v.04c0 .12.07.24.17.33.1.08.24.13.38.13.1 0 .24-.03.37-.07.22-.06.46-.12.59-.04l.02.01v-.01z"/><path class="prefix__st7" d="M19.94 24.09l-.05.05c-.15-.07-.39-.01-.62.05-.13.03-.26.07-.36.07-.13 0-.25-.04-.34-.12a.392.392 0 01-.15-.27v-.03c0-.16.06-.26.13-.31.07-.06.16-.07.23-.07h.02c.06 0 .1.03.14.06a.19.19 0 01.04.25l-.06.06c-.02.01-.05.02-.08.02-.04 0-.07-.01-.11-.03l-.03-.02c-.01.02-.01.04-.01.05 0 .02.01.05.03.07.01.02.03.03.06.04.04.03.12.04.2.04.09 0 .19-.05.26-.13a.44.44 0 00.11-.28c0-.16-.07-.24-.12-.29-.01-.01-.02-.03-.03-.03 0 0 .01-.02.03-.03.05-.05.13-.13.12-.29 0-.11-.04-.21-.11-.28a.364.364 0 00-.26-.13c-.08 0-.16.01-.21.04-.02.01-.04.03-.06.04a.09.09 0 00-.03.07c0 .02 0 .03.01.05l.02.03.03-.02a.26.26 0 01.11-.03c.03 0 .06.01.08.02.02.01.04.03.06.06.02.03.03.07.03.11 0 .03-.02.09-.07.14-.03.03-.08.06-.14.06-.08 0-.17-.01-.25-.06-.08-.06-.13-.17-.13-.37 0-.09.06-.19.14-.26.09-.07.2-.12.33-.12h.01c.1 0 .22.03.36.07.23.06.47.12.62.05l.05.05v1.62z"/><path class="prefix__st5" d="M22.08 24.2l-.08-.07-.01-.01v-.02l-.01-1.66v-.02H22l.08-.07.02-.02.02.01c.13.07.37.01.59-.04.14-.03.27-.07.37-.07h.01c.14 0 .27.05.37.14.1.08.16.2.16.31 0 .23-.07.35-.16.42s-.2.08-.29.08c-.08 0-.14-.03-.18-.07a.3.3 0 01-.09-.19c0-.06.01-.11.04-.15.02-.03.05-.06.08-.08.03-.02.07-.03.11-.03.03 0 .07.01.1.02v-.01a.138.138 0 00-.04-.03.325.325 0 00-.18-.03c-.07 0-.15.04-.21.11a.37.37 0 00-.09.24c0 .13.06.2.1.24.03.03.05.05.05.08s-.02.05-.05.07c-.04.04-.1.11-.1.24 0 .09.04.18.09.24.06.07.13.11.21.11.07 0 .13-.01.18-.03.02-.01.03-.02.04-.03v-.01c-.03.01-.07.02-.1.02-.04 0-.08-.01-.11-.03a.304.304 0 01-.08-.08.241.241 0 01-.04-.15.3.3 0 01.09-.19c.04-.04.11-.07.18-.07h.02c.08 0 .19.02.27.09.09.07.15.18.16.36v.04c0 .12-.07.24-.17.33-.1.08-.24.13-.38.13-.1 0-.24-.03-.37-.07-.22-.06-.46-.12-.59-.04l-.02.01-.01-.02z"/><path class="prefix__st7" d="M22.06 24.09l.05.05c.15-.07.39-.01.62.05.13.03.26.07.36.07.13 0 .25-.04.34-.12.09-.07.14-.17.15-.27v-.03c0-.16-.06-.26-.13-.31a.345.345 0 00-.23-.07h-.02c-.06 0-.1.03-.14.06a.19.19 0 00-.04.25l.06.06c.02.01.05.02.08.02.04 0 .07-.01.11-.03l.03-.02.02.03a.108.108 0 01-.02.12c-.01.02-.03.03-.06.04-.06 0-.14.01-.22.01-.09 0-.19-.05-.26-.13a.44.44 0 01-.11-.28c0-.16.07-.24.12-.29l.03-.03s-.01-.02-.03-.03c-.05-.05-.13-.13-.12-.29 0-.11.04-.21.11-.28.07-.08.17-.13.26-.13.08 0 .16.01.21.04.02.01.04.03.06.04.02.02.03.04.03.07 0 .02 0 .03-.01.05l-.02.03-.03-.02a.26.26 0 00-.11-.03c-.03 0-.06.01-.08.02a.17.17 0 00-.06.06c-.02.03-.03.07-.03.11 0 .03.02.09.07.14.03.03.08.06.14.06.08 0 .17-.01.25-.06.08-.06.13-.17.13-.37 0-.09-.06-.19-.14-.26a.532.532 0 00-.33-.12h-.01c-.1 0-.22.03-.36.07-.23.06-.47.12-.62.05l-.05.05v1.62z"/><path class="prefix__st8" d="M17.49 12.43c-.01.03-.01.06.01.09s.04.05.07.06c.03.01.07.01.1-.01s.05-.04.06-.07c.01-.03.01-.07-.01-.1a.12.12 0 00-.05-.05c-.01 0-.03 0-.05.01-.03.01-.05.02-.06.02-.02.01-.05.03-.07.05zM24.51 12.43c.01.03.01.06-.01.09s-.04.05-.07.06c-.03.01-.07.01-.1-.01a.134.134 0 01-.06-.07.118.118 0 01.01-.1.12.12 0 01.05-.05c.01 0 .03 0 .05.01.03.01.05.02.06.02.02.01.05.03.07.05z"/></g></svg>