<?xml version="1.0" encoding="UTF-8"?>
<svg id="Layer_1" data-name="Layer 1" xmlns="http://www.w3.org/2000/svg" version="1.1" viewBox="0 0 1479.1 1479.1">
  <defs>
    <style>
      .cls-1 {
        fill: #fff;
        fill-rule: evenodd;
      }

      .cls-1, .cls-2 {
        stroke-width: 0px;
      }

      .cls-2 {
        fill: #cc2229;
      }
    </style>
  </defs>
  <circle class="cls-2" cx="744.9" cy="739.6" r="711.1"/>
  <path class="cls-1" d="M718.7,1084.3c-194.4-2.2-350.8-158.3-350.1-349,2.3-191.1,161.1-344.7,355.1-344,107.4,1.3,204.5,49.8,267.5,125.4-77-131.8-221.5-221.6-387.5-223.9-248.6-1.9-453.4,196.2-455.4,440.5-1.9,244.4,199.6,445.6,448.3,447.5,165.6.8,312-86.8,391.7-217.9-65.4,74.8-161.6,121.7-269.6,121.4ZM1301.7,740.3l80.7-109.1-140.5,39-92-108.8-1.4,135.8-135.9,44.2,135.4,42.8-1,137.3,92.5-107.3,145.3,43.4-83-117.5Z"/>
</svg>